<?xml version="1.0" encoding="UTF-8" standalone="no"?>
<svg
   xmlns:dc="http://purl.org/dc/elements/1.1/"
   xmlns:cc="http://creativecommons.org/ns#"
   xmlns:rdf="http://www.w3.org/1999/02/22-rdf-syntax-ns#"
   xmlns:svg="http://www.w3.org/2000/svg"
   xmlns="http://www.w3.org/2000/svg"
   xmlns:sodipodi="http://sodipodi.sourceforge.net/DTD/sodipodi-0.dtd"
   xmlns:inkscape="http://www.inkscape.org/namespaces/inkscape"
   sodipodi:docname="Pray On It.svg"
   inkscape:version="1.0 (4035a4fb49, 2020-05-01)"
   id="svg893"
   version="1.1"
   viewBox="0 0 210 297"
   height="297mm"
   width="210mm">
  <defs
     id="defs887" />
  <sodipodi:namedview
     inkscape:window-maximized="1"
     inkscape:window-y="-8"
     inkscape:window-x="-8"
     inkscape:window-height="697"
     inkscape:window-width="1366"
     inkscape:snap-global="false"
     showgrid="false"
     inkscape:document-rotation="0"
     inkscape:current-layer="layer1"
     inkscape:document-units="mm"
     inkscape:cy="560"
     inkscape:cx="607.01136"
     inkscape:zoom="0.35"
     inkscape:pageshadow="2"
     inkscape:pageopacity="0.0"
     borderopacity="1.0"
     bordercolor="#666666"
     pagecolor="#ffffff"
     id="base" />
  <metadata
     id="metadata890">
    <rdf:RDF>
      <cc:Work
         rdf:about="">
        <dc:format>image/svg+xml</dc:format>
        <dc:type
           rdf:resource="http://purl.org/dc/dcmitype/StillImage" />
        <dc:title></dc:title>
      </cc:Work>
    </rdf:RDF>
  </metadata>
  <g
     id="layer1"
     inkscape:groupmode="layer"
     inkscape:label="Layer 1">
    <path
       d="M 5.2199838,5.1821861 V 52.539501 h 0.3958415 l 5.0787597,5.07876 H 20.917734 V 41.722591 H 33.58156 c 1.97871,0 3.825349,-0.351692 5.54023,-1.055232 1.758854,-0.747514 3.275975,-1.758754 4.551142,-3.033924 1.319141,-1.319141 2.352559,-2.836262 3.10007,-4.551143 0.747514,-1.758855 1.121379,-3.627668 1.121379,-5.606378 v -2.572451 c 0,-1.97871 -0.373865,-3.825348 -1.121379,-5.540229 -0.747511,-1.714884 -1.758754,-3.20983 -3.033924,-4.485 L 40.177541,11.316178 C 38.8584,9.4693835 37.165431,7.9966103 35.098779,6.8973269 33.032126,5.7540724 30.767275,5.1821861 28.30488,5.1821861 Z m 45.4359852,0 V 52.539501 h 0.395843 l 5.078759,5.07876 H 66.288089 V 41.788737 h 3.495395 l 6.727753,10.750764 h 0.329698 l 5.078759,5.07876 H 93.791836 C 92.1649,55.023952 90.450276,52.27591 88.64745,49.373804 86.8886,46.471696 85.195619,43.701479 83.568688,41.0632 c 1.495018,-0.439714 2.836304,-1.099265 4.023527,-1.978692 1.187225,-0.879422 2.19847,-1.912842 3.033924,-3.100067 0.835461,-1.231199 1.472832,-2.550301 1.912546,-3.957381 0.483679,-1.451055 0.725535,-2.968175 0.725535,-4.551146 v -2.506305 c 0,-1.97871 -0.395526,-3.847523 -1.187006,-5.606375 C 91.3297,17.604379 90.318463,16.087258 89.04329,14.812088 l -3.49591,-3.49591 C 84.228249,9.4693835 82.535273,7.9966103 80.468621,6.8973269 78.445939,5.7540724 76.20326,5.1821861 73.740865,5.1821861 Z m 59.155051,0 -18.468128,47.3573149 h 0.528133 l 5.078243,5.07876 h 11.410672 c 0.57163,-1.407081 1.12134,-2.880371 1.64899,-4.419368 0.57163,-1.538996 1.14352,-3.01177 1.71515,-4.418851 h 14.44459 l 1.45108,3.759459 h 0.32969 l 5.07876,5.07876 h 11.41016 L 126.16867,10.656789 121.22169,5.7103193 121.02377,5.1821861 Z m 22.75571,0 14.77429,29.7470219 v 17.610293 h 0.39584 l 5.07877,5.07876 h 10.157 V 40.139743 l 14.64251,-29.482954 -5.14438,-5.0787614 0.19791,-0.3958415 h -11.74036 c -0.65957,1.4070827 -1.36347,2.8581974 -2.11099,4.3532226 -0.74751,1.4510533 -1.47307,2.8805093 -2.17661,4.2875933 l -2.836,5.672005 -4.35322,-8.838218 -4.81469,-4.8146948 -0.3297,-0.6599081 z M 6.0116668,5.9738691 H 28.30488 c 1.890768,0 3.671916,0.3738658 5.342826,1.1213785 1.67091,0.7035414 3.122025,1.6709507 4.353221,2.902149 1.231199,1.2311964 2.198608,2.6823114 2.902149,4.3532214 0.747514,1.626941 1.120862,3.385396 1.120862,5.276165 v 2.572453 c 0,1.890766 -0.373348,3.671917 -1.120862,5.342824 -0.703541,1.670913 -1.67095,3.121509 -2.902149,4.352708 -1.231196,1.231196 -2.682311,2.198606 -4.353221,2.902148 -1.67091,0.703541 -3.452058,1.055749 -5.342826,1.055749 H 15.047807 v 6.925159 8.969994 H 8.5841195 6.0116668 v -8.969994 -9.431983 -4.484997 -4.484997 -9.431983 z m 45.4359862,0 h 20.314523 1.978689 c 1.890768,0 3.649741,0.3738658 5.27668,1.1213785 1.67091,0.7035414 3.122025,1.6709507 4.353224,2.902149 1.231191,1.2311964 2.198611,2.6823114 2.902149,4.3532214 0.747511,1.670912 1.121378,3.451542 1.121378,5.34231 v 2.506308 c 0,1.538997 -0.264031,3.033943 -0.791684,4.484997 -0.483685,1.407084 -1.165415,2.704526 -2.044837,3.891751 -0.879425,1.143254 -1.934501,2.154497 -3.165698,3.033924 -1.231196,0.835457 -2.594131,1.451174 -4.089156,1.846916 L 87.394296,51.747818 H 76.97271 L 67.079257,35.918295 h -6.66161 v 6.859529 8.969994 h -6.397541 -2.572453 v -8.969994 -9.431983 -4.484997 -4.484997 -9.431983 z m 58.890977,0 h 10.15752 l 17.80821,45.7739489 h -10.157 L 124.7176,42.9096 h -18.5999 l -3.42977,8.838218 H 92.530417 Z m 23.48125,0 h 9.9596 l 8.83822,17.8082159 8.83822,-17.8082159 h 9.9596 L 157.1027,34.731287 v 17.016531 h -8.96999 V 34.731287 Z M 15.047807,14.943864 v 9.431983 2.506305 H 28.30488 c 1.319141,0 2.440736,-0.461528 3.364134,-1.384927 0.923399,-0.923398 1.38493,-2.022821 1.38493,-3.297989 v -2.572453 c 0,-1.27517 -0.461531,-2.374075 -1.38493,-3.297473 -0.923398,-0.923399 -2.044993,-1.385446 -3.364134,-1.385446 z m 45.36984,0 v 9.431983 2.572451 h 11.344529 1.978689 c 1.27517,0 2.374593,-0.461529 3.297991,-1.384927 0.923396,-0.923398 1.384927,-2.044996 1.384927,-3.364135 v -2.506308 c 0,-1.319141 -0.461531,-2.44022 -1.384927,-3.363618 -0.923398,-0.923399 -2.022821,-1.385446 -3.297991,-1.385446 h -1.978689 z m 54.999743,4.089672 -5.8043,14.906067 h 11.6086 z M 20.917734,20.814307 H 32.26226 v 1.384929 c 0,1.055312 -0.395523,1.978888 -1.187008,2.770373 -0.747511,0.747511 -1.67109,1.121378 -2.770372,1.121378 h -7.387146 z m 45.370355,0 h 11.344529 v 1.384929 c 0,1.099283 -0.396041,2.044518 -1.187527,2.836003 -0.747508,0.747511 -1.648915,1.121378 -2.704226,1.121378 h -7.452776 z m 52.690841,9.431983 0.52762,1.451072 c 0.17588,0.483685 0.37391,0.966878 0.59376,1.450557 h -2.30839 z m 4.49482,27.848427 c -0.1845,-0.0031 -0.3721,0.01111 -0.56276,0.04186 -0.73798,0.123002 -1.48842,0.430419 -2.25103,0.922424 -0.76259,0.4674 -1.52511,1.07015 -2.28771,1.808158 -0.73801,0.737999 -1.45165,1.525206 -2.14044,2.361612 -0.68882,0.811805 -1.34043,1.6358 -1.95544,2.472201 -0.59042,0.811805 -1.11957,1.549617 -1.58698,2.213819 h -4.20646 c -0.0984,0 -0.19667,0.03679 -0.29507,0.110588 -0.0738,0.04921 -0.11059,0.12329 -0.11059,0.221691 0,0.123 0.0368,0.221271 0.11059,0.295072 0.0984,0.0738 0.19667,0.110587 0.29507,0.110587 h 3.65301 c -1.10699,1.672807 -2.06607,3.468974 -2.87786,5.387785 -0.60521,1.430446 -1.12828,2.784806 -1.56942,4.064868 -0.079,0.0878 -0.14359,0.18329 -0.18603,0.289388 -0.14758,0.295201 -0.31943,0.577924 -0.51625,0.848529 -0.17219,0.246002 -0.36925,0.504029 -0.59066,0.774629 -0.39359,0.442798 -0.88549,0.898408 -1.47588,1.365808 -0.56581,0.4674 -1.18064,0.909883 -1.84485,1.328084 -0.6396,0.4182 -1.30385,0.799716 -1.99264,1.144116 -0.68882,0.3198 -1.328327,0.56574 -1.918747,0.737939 -0.44281,0.12301 -0.824318,0.171879 -1.144117,0.147278 -0.319799,-0.0246 -0.479557,-0.209045 -0.479557,-0.553453 0,-0.319791 0.09828,-0.688708 0.295074,-1.106911 0.221379,-0.418208 0.417954,-0.762413 0.590142,-1.033012 0.0492,-0.147598 0.08651,-0.245872 0.111107,-0.295072 0.418219,-0.590399 0.860673,-1.242552 1.328084,-1.955953 0.467384,-0.713407 0.910374,-1.352947 1.328604,-1.918745 0.4182,-0.590407 0.84859,-1.193157 1.29139,-1.80816 0.46742,-0.639604 0.83632,-1.315934 1.10691,-2.029333 0.1722,-0.418203 0.30778,-0.836504 0.40618,-1.254705 0.0984,-0.418197 0.11048,-0.811799 0.0367,-1.180806 -0.0492,-0.368998 -0.20895,-0.701122 -0.47956,-0.99632 -0.24599,-0.319802 -0.6149,-0.590431 -1.10691,-0.811837 h -0.0372 c -0.0246,0 -0.0367,0.01209 -0.0367,0.03669 -0.27061,0.811805 -0.59064,1.66049 -0.95963,2.546098 -0.36899,0.861005 -0.7626,1.734394 -1.1808,2.619994 -0.418205,0.861008 -0.8486,1.722298 -1.291399,2.583305 -0.418201,0.860999 -0.823907,1.684996 -1.217496,2.4722 -0.270621,0.516602 -0.504449,1.057865 -0.701249,1.623674 -0.196792,0.565801 -0.319781,1.168556 -0.368972,1.80816 0,0.1968 0.01209,0.40595 0.03669,0.627351 0,0.221401 0.04939,0.430024 0.147794,0.626835 0.2214,0.369001 0.553521,0.578151 0.996323,0.627353 0.467389,0.0738 0.983964,0.037 1.549775,-0.110588 0.565791,-0.17219 1.168534,-0.418139 1.808164,-0.737941 0.63956,-0.319799 1.25445,-0.664012 1.84485,-1.03301 0.615,-0.369004 1.16887,-0.72581 1.66087,-1.070218 0.51661,-0.344401 0.92231,-0.627129 1.2175,-0.84853 0.34899,-0.279188 0.72338,-0.600474 1.10949,-0.941543 -0.0688,0.57228 -0.0762,1.132474 -0.0186,1.679485 0.123,0.910198 0.65164,1.709491 1.58647,2.398302 0.61499,0.4674 1.29184,0.725945 2.02985,0.775147 0.738,0.0492 1.50052,-0.037 2.28771,-0.258384 0.78721,-0.245988 1.57444,-0.590727 2.36162,-1.033526 0.8118,-0.442801 1.57432,-0.909973 2.28771,-1.401982 0.7134,-0.516602 1.36555,-1.021088 1.95596,-1.513086 0.59038,-0.51661 1.08228,-0.959085 1.47587,-1.328084 0.1968,-0.196802 0.38124,-0.369165 0.55346,-0.516766 0.17219,-0.172201 0.31987,-0.344556 0.44287,-0.516763 0.0984,-0.122999 0.17196,-0.245972 0.22117,-0.368972 0.0738,-0.1476 0.0864,-0.282659 0.0372,-0.405659 0,-0.246001 -0.0615,-0.406275 -0.18449,-0.480073 -0.14759,-0.196802 -0.31996,-0.220985 -0.51676,-0.07338 -0.17222,0.123002 -0.35666,0.319545 -0.55346,0.590145 -0.14761,0.2706 -0.30736,0.541237 -0.47955,0.811837 -0.17219,0.246007 -0.35666,0.491945 -0.55346,0.737941 -0.29519,0.3198 -0.68933,0.701315 -1.18132,1.144114 -0.49202,0.442812 -1.04537,0.897893 -1.66037,1.365293 -0.61501,0.442809 -1.27925,0.861102 -1.99264,1.254704 -0.68879,0.393599 -1.36512,0.701024 -2.02933,0.922425 -0.66421,0.221408 -1.30375,0.331761 -1.91875,0.331761 -0.615,0 -1.15625,-0.171847 -1.62367,-0.516247 -0.56578,-0.39361 -0.84853,-1.008954 -0.84853,-1.845366 0.0246,-0.836401 0.22113,-1.770761 0.59015,-2.803964 0.36899,-1.033206 0.87348,-2.115738 1.51308,-3.247345 0.6396,-1.156205 1.29123,-2.238743 1.95544,-3.247348 0.66421,-1.008607 1.29167,-1.906693 1.88205,-2.693892 0.5904,-0.811808 1.04548,-1.389861 1.3653,-1.734262 h 6.38359 c 0.0984,0 0.18459,-0.03679 0.25838,-0.110587 0.0984,-0.0738 0.14779,-0.172072 0.14779,-0.295072 0,-0.09841 -0.0494,-0.172489 -0.14779,-0.221691 -0.0738,-0.0738 -0.15998,-0.110588 -0.25838,-0.110588 h -5.60845 c 0.12298,-0.295201 0.35633,-0.725596 0.70073,-1.291394 0.3444,-0.565809 0.75063,-1.168559 1.21802,-1.80816 0.49199,-0.664205 1.00856,-1.34053 1.54977,-2.029333 0.56581,-0.713404 1.13125,-1.352947 1.69706,-1.918745 0.56578,-0.590407 1.10707,-1.070187 1.62367,-1.439188 0.5412,-0.393605 1.00891,-0.627449 1.4025,-0.701249 0.0492,0 0.0739,-0.01209 0.0739,-0.03669 v -0.111103 c -0.49816,-0.313651 -1.02418,-0.474983 -1.57768,-0.484209 z m -17.11472,4.580599 c -0.61499,0 -1.14417,0.184454 -1.58699,0.553455 -0.44279,0.3444 -0.66404,0.836274 -0.66404,1.47588 -0.0246,0.123003 -0.0246,0.258059 0,0.40566 0.0246,0.147597 0.0861,0.283178 0.18449,0.406177 0.24601,0.2706 0.56601,0.356783 0.95963,0.258382 0.4182,-0.0984 0.77451,-0.184584 1.0697,-0.258382 0.24601,-0.122999 0.47984,-0.270666 0.70125,-0.442867 0.2214,-0.172199 0.39379,-0.369263 0.51676,-0.590661 0.12301,-0.221406 0.17188,-0.454734 0.14728,-0.700733 -0.0246,-0.246002 -0.17176,-0.49194 -0.44235,-0.737939 -0.12301,-0.0984 -0.2586,-0.184584 -0.40617,-0.258384 -0.14761,-0.0738 -0.30734,-0.110588 -0.47956,-0.110588 z m -19.923333,7.243487 c -0.1,-0.0015 -0.205044,0.0074 -0.315743,0.02584 -0.4182,0.0492 -0.849101,0.172169 -1.29191,0.368972 -0.442801,0.196797 -0.860597,0.43013 -1.254189,0.70073 -0.393628,0.2706 -0.688932,0.479753 -0.885732,0.627354 -0.467392,0.418208 -0.922491,0.848592 -1.365292,1.291394 -0.44281,0.418198 -0.897904,0.861192 -1.36529,1.3286 0.24601,-0.787207 0.282779,-1.500323 0.110585,-2.139921 -0.147611,-0.639607 -0.652079,-1.144088 -1.513086,-1.513086 h -0.03669 l -0.03669,0.03669 c -0.369015,1.107006 -0.799918,2.214239 -1.29191,3.321245 -0.492019,1.082408 -0.995971,2.164946 -1.51257,3.247345 -0.178303,0.383345 -0.353574,0.769948 -0.528651,1.156521 -0.06943,0.0803 -0.132789,0.172564 -0.187584,0.282151 -0.418201,0.836406 -0.922695,1.562129 -1.513086,2.177129 -0.590418,0.5904 -1.254641,1.058098 -1.992643,1.402499 -0.738003,0.319799 -1.537296,0.504253 -2.398303,0.553455 -0.836401,0.0246 -1.697691,-0.135157 -2.583307,-0.479557 0.0984,-0.172191 0.270783,-0.381352 0.516766,-0.627354 0.319802,-0.3444 0.627203,-0.725916 0.922425,-1.144116 0.295195,-0.418198 0.578453,-0.848596 0.849042,-1.291392 0.319802,-0.516609 0.664025,-1.168747 1.033013,-1.955953 0.393621,-0.8118 0.688938,-1.647886 0.885735,-2.508891 0.196797,-0.861007 0.245676,-1.685001 0.147278,-2.472203 -0.07379,-0.811802 -0.405906,-1.46395 -0.996323,-1.955951 -0.27059,-0.221398 -0.565415,-0.344368 -0.885217,-0.368969 -0.319802,-0.04921 -0.651914,-0.02451 -0.996323,0.0739 -0.319801,0.0738 -0.639828,0.196773 -0.95963,0.368969 -0.319802,0.172204 -0.602517,0.344564 -0.848527,0.516766 -0.172191,-0.295201 -0.479644,-0.418685 -0.922425,-0.369488 -0.196797,0.0246 -0.405947,0.0866 -0.62735,0.185002 -0.221404,0.0984 -0.430557,0.208761 -0.627354,0.331763 -0.467413,0.319799 -0.935085,0.713399 -1.402498,1.180806 -0.442807,0.442799 -0.873194,0.934673 -1.291394,1.475878 -0.418201,0.516602 -0.811792,1.045784 -1.180807,1.586984 -0.368987,0.541205 -0.676412,1.069869 -0.922424,1.586468 -0.221401,0.418206 -0.417952,0.849112 -0.590143,1.29191 -0.17222,0.418201 -0.319863,0.83598 -0.442867,1.254186 -0.123005,0.3936 -0.209198,0.763027 -0.258385,1.107427 -0.04921,0.319799 -0.0739,0.651923 -0.0739,0.99632 -0.02461,0.295201 -0.02461,0.602626 0,0.922425 0.02458,0.295212 0.08609,0.590016 0.184483,0.885219 0.24601,0.860999 0.651688,1.439566 1.217499,1.734778 0.565812,0.295187 1.181153,0.393462 1.845363,0.295071 0.688792,-0.0738 1.365126,-0.282951 2.029336,-0.627351 0.688816,-0.344411 1.291558,-0.713309 1.808157,-1.106911 l 0.442867,-0.368969 c 0.172218,-0.147601 0.356659,-0.283176 0.553456,-0.406175 v -0.03669 c 0.934826,0.418201 1.881764,0.627354 2.84117,0.627354 0.959405,-0.0246 1.882174,-0.196964 2.76779,-0.516766 0.786365,-0.305818 1.523902,-0.718986 2.2133,-1.238168 -0.241062,0.63813 -0.459203,1.284047 -0.648538,1.939417 -0.147585,0.516602 -0.196983,0.934906 -0.147797,1.254705 0.07382,0.295201 0.184669,0.467058 0.33228,0.516247 0.147585,0.0738 0.295283,0.03699 0.442868,-0.110588 0.172217,-0.172199 0.258381,-0.454927 0.258381,-0.848527 h 0.07338 c 0.319802,-1.008599 0.750705,-1.931379 1.29191,-2.76779 0.541206,-0.860999 1.106662,-1.721784 1.697054,-2.582786 l 0.147796,-0.110588 c 0.639601,-0.860999 1.291225,-1.685512 1.955435,-2.472719 0.688816,-0.787207 1.427141,-1.561803 2.214335,-2.324404 0.122999,-0.123 0.282739,-0.270669 0.479557,-0.442868 0.22138,-0.196807 0.442632,-0.381256 0.664043,-0.553455 0.245999,-0.1968 0.479838,-0.369165 0.701249,-0.516763 0.221401,-0.1476 0.418471,-0.245875 0.590661,-0.295074 0.0492,0 0.110686,-0.0126 0.184486,-0.03721 0.0984,-0.0492 0.171995,-0.0492 0.221174,0 0.0492,0.0492 0.0739,0.110686 0.0739,0.184484 0,0.0738 -0.01261,0.147894 -0.03721,0.221691 0,0.0492 -0.01209,0.122775 -0.03669,0.221176 -0.0246,0.0492 -0.0493,0.123291 -0.0739,0.221692 0,0.0738 -0.01209,0.135284 -0.03669,0.184486 -0.147609,0.295206 -0.295257,0.577927 -0.442865,0.848527 l -0.368972,0.811837 c -0.270608,0.467405 -0.639488,1.15634 -1.106908,2.066541 -0.467379,0.885608 -0.897803,1.820471 -1.291395,2.80448 -0.393625,0.959408 -0.688935,1.894279 -0.885732,2.80448 -0.196797,0.910212 -0.160031,1.598623 0.110585,2.066023 0.221377,0.393599 0.553514,0.602752 0.996323,0.627351 0.44281,0.0246 0.947306,-0.049 1.513086,-0.221176 0.56582,-0.1968 1.155951,-0.467426 1.770952,-0.811834 0.639598,-0.369001 1.254429,-0.750515 1.844849,-1.144117 0.590389,-0.39361 1.131663,-0.774599 1.623671,-1.1436 0.492001,-0.368999 0.885587,-0.664335 1.180807,-0.885735 0.295201,-0.1968 0.578463,-0.405951 0.849045,-0.627351 0.29523,-0.245999 0.577905,-0.504547 0.848527,-0.775147 l 0.516763,-0.516247 c 0.17219,-0.172207 0.319857,-0.344562 0.442867,-0.516763 0.0492,-0.123 0.110696,-0.258059 0.184486,-0.405662 0.0984,-0.147598 0.135168,-0.295267 0.110588,-0.442865 0,-0.172202 -0.07409,-0.319866 -0.221692,-0.442868 -0.172212,-0.122999 -0.344059,-0.122999 -0.516249,0 -0.24601,0.0984 -0.418362,0.270764 -0.516763,0.516763 -0.270622,0.516599 -0.652127,1.057349 -1.144117,1.623158 -0.54121,0.615 -1.254342,1.242446 -2.139921,1.882056 -0.885618,0.639601 -1.771094,1.217652 -2.656684,1.734261 -1.353021,0.8118 -2.300488,1.230104 -2.841688,1.254702 -0.541211,0.0246 -0.823918,-0.196641 -0.848527,-0.664041 -0.0246,-0.467399 0.147744,-1.094845 0.516763,-1.882055 0.393592,-0.8118 0.836097,-1.635802 1.328087,-2.4722 0.516628,-0.861005 1.033174,-1.660816 1.549776,-2.398821 0.516598,-0.738 0.898104,-1.278758 1.144116,-1.623156 0.172188,-0.221406 0.406059,-0.566131 0.701249,-1.033528 0.295198,-0.492004 0.553228,-0.996479 0.774629,-1.513086 0.246009,-0.5412 0.393686,-1.057773 0.442867,-1.549779 0.0738,-0.492 -0.03712,-0.885605 -0.33228,-1.180806 -0.202959,-0.184504 -0.454159,-0.27909 -0.753959,-0.283702 z m -18.05006,0.833022 c 0.06609,0.0031 0.130204,0.01674 0.19172,0.04134 0.245983,0.0984 0.405738,0.344339 0.479557,0.737939 0.0984,0.369009 0.135192,0.774694 0.110588,1.217496 0,0.442799 -0.0368,0.873707 -0.110588,1.29191 -0.04921,0.393599 -0.09861,0.676328 -0.147796,0.848527 -0.270616,1.254609 -0.68889,2.472203 -1.254702,3.653006 -0.565811,1.180809 -1.278916,2.263339 -2.139923,3.247348 -0.516599,-0.565809 -0.873422,-1.193255 -1.070219,-1.882055 -0.172217,-0.713404 -0.233669,-1.426522 -0.184483,-2.139921 0.04921,-0.738008 0.196884,-1.463728 0.442867,-2.177129 0.24601,-0.713404 0.541325,-1.365549 0.885733,-1.955951 0.0984,-0.147606 0.258154,-0.393541 0.479557,-0.737942 0.221403,-0.3444 0.479925,-0.688609 0.775147,-1.03301 0.295196,-0.344405 0.590021,-0.627644 0.885217,-0.849045 0.239844,-0.184499 0.458967,-0.27174 0.657325,-0.262517 z m -5.232757,3.768246 c -0.172191,0.3936 -0.31986,0.787199 -0.442865,1.180806 -0.123007,0.369002 -0.196596,0.762609 -0.221176,1.180807 -0.123004,0.66421 -0.147714,1.328444 -0.0739,1.992643 0.07379,0.639606 0.282946,1.279147 0.627354,1.918748 0.4182,0.688808 0.959461,1.230071 1.623671,1.623674 0.02458,0 0.04877,0.01209 0.07338,0.03669 h 0.147794 c -0.02461,0.0492 -0.06137,0.08649 -0.110588,0.111104 l -0.0739,0.07338 c -0.565785,0.54121 -1.205351,1.008898 -1.918747,1.402498 -0.713396,0.393602 -1.365536,0.590145 -1.955954,0.590145 -0.590391,0 -1.032888,-0.25803 -1.328084,-0.774629 -0.295222,-0.516601 -0.307824,-1.414692 -0.03721,-2.693892 0.270589,-0.836411 0.602726,-1.673003 0.99632,-2.509409 0.467413,-0.860999 0.971907,-1.697085 1.513086,-2.50889 0.196797,-0.2706 0.393348,-0.541232 0.590145,-0.811837 0.196797,-0.295201 0.393864,-0.565838 0.590661,-0.811837 z M 5.2199838,89.748599 v 47.357311 h 0.3958415 l 5.0787597,5.07877 H 20.917734 V 126.289 H 33.58156 c 1.97871,0 3.825349,-0.35169 5.54023,-1.05523 1.758854,-0.74751 3.275975,-1.75875 4.551142,-3.03392 1.319141,-1.31914 2.352559,-2.83626 3.10007,-4.55115 0.747514,-1.75886 1.121379,-3.62766 1.121379,-5.60637 v -2.57245 c 0,-1.97871 -0.373865,-3.82535 -1.121379,-5.54023 -0.747511,-1.71489 -1.758754,-3.20983 -3.033924,-4.485001 L 40.177541,95.882593 C 38.8584,94.035801 37.165431,92.563019 35.098779,91.463742 33.032129,90.32049 30.767275,89.748599 28.30488,89.748599 Z m 45.4359852,0 v 47.357311 h 0.395843 l 5.078759,5.07877 h 10.157518 v -15.82953 h 3.495395 l 6.727753,10.75076 h 0.329698 l 5.078759,5.07877 h 11.872142 c -1.626928,-2.5943 -3.341568,-5.34236 -5.144386,-8.24446 -1.758852,-2.90211 -3.451831,-5.67233 -5.078762,-8.31061 1.495018,-0.43971 2.836304,-1.09926 4.023527,-1.97869 1.187227,-0.87942 2.198465,-1.91284 3.033924,-3.10007 0.835461,-1.23119 1.472835,-2.5503 1.912546,-3.95738 0.483679,-1.45105 0.725535,-2.96817 0.725535,-4.55114 v -2.50631 c 0,-1.97871 -0.395526,-3.84752 -1.187006,-5.60637 -0.747511,-1.75886 -1.758754,-3.27598 -3.033924,-4.551147 l -3.49591,-3.49591 C 84.228249,94.035801 82.535271,92.563019 80.468621,91.463742 78.445939,90.32049 76.20326,89.748599 73.740865,89.748599 Z m 59.155051,0 -18.468128,47.357311 h 0.528133 l 5.078243,5.07877 h 11.410672 c 0.57163,-1.40709 1.12135,-2.88038 1.64899,-4.41937 0.57164,-1.539 1.14351,-3.01177 1.71515,-4.41886 h 14.44459 l 1.45108,3.75946 h 0.32969 l 5.07876,5.07877 h 11.41016 l -18.26969,-46.961479 -4.94698,-4.946468 -0.19792,-0.528134 z m 22.75571,0 14.77429,29.747021 v 17.61029 h 0.39584 l 5.07877,5.07877 h 10.157 v -17.47852 l 14.64251,-29.482959 -5.14438,-5.078759 0.19791,-0.395843 h -11.74036 c -0.65957,1.40708 -1.36347,2.858203 -2.11099,4.353224 -0.7475,1.451059 -1.47307,2.880502 -2.17661,4.287594 l -2.836,5.672003 -4.35322,-8.838219 -4.81469,-4.814694 -0.3297,-0.659908 z M 6.0116668,90.540282 H 28.30488 c 1.890768,0 3.671916,0.37387 5.342826,1.121379 1.67091,0.70354 3.122025,1.670949 4.353221,2.902148 1.231199,1.231201 2.198608,2.682314 2.902149,4.353224 0.747514,1.626937 1.120862,3.385397 1.120862,5.276157 v 2.57246 c 0,1.89077 -0.373348,3.67192 -1.120862,5.34283 -0.703541,1.67092 -1.67095,3.1215 -2.902149,4.3527 -1.231196,1.2312 -2.682311,2.19861 -4.353221,2.90215 -1.67091,0.70354 -3.452058,1.05575 -5.342826,1.05575 H 15.047807 v 6.92516 8.96999 H 8.5841195 6.0116668 v -8.96999 -9.43198 -4.485 -4.485 -9.431984 z m 45.4359862,0 h 20.314523 1.978689 c 1.890768,0 3.649741,0.37387 5.27668,1.121379 1.67091,0.70354 3.122025,1.670949 4.353224,2.902148 1.231191,1.231201 2.198608,2.682314 2.902149,4.353224 0.747508,1.670907 1.121378,3.451537 1.121378,5.342307 v 2.50631 c 0,1.539 -0.264031,3.03394 -0.791684,4.485 -0.483685,1.40708 -1.165415,2.70452 -2.044837,3.89175 -0.879425,1.14325 -1.934501,2.1545 -3.165698,3.03392 -1.231196,0.83546 -2.594131,1.45118 -4.089156,1.84692 l 10.091375,16.29099 H 76.97271 l -9.893453,-15.82952 h -6.66161 v 6.85953 8.96999 h -6.397541 -2.572453 v -8.96999 -9.43198 -4.485 -4.485 -9.431984 z m 58.890977,0 h 10.15752 l 17.80821,45.773948 h -10.157 l -3.42976,-8.83822 h -18.5999 l -3.42977,8.83822 H 92.530417 Z m 23.48125,0 h 9.9596 l 8.83822,17.808218 8.83822,-17.808218 h 9.9596 L 157.1027,119.2977 v 17.01653 h -8.96999 V 119.2977 Z M 15.047807,99.510276 v 9.431984 2.50631 H 28.30488 c 1.319141,0 2.440736,-0.46153 3.364134,-1.38493 0.923401,-0.9234 1.38493,-2.02282 1.38493,-3.29799 v -2.57246 c 0,-1.27517 -0.461529,-2.37407 -1.38493,-3.29747 -0.923398,-0.923389 -2.044993,-1.385444 -3.364134,-1.385444 z m 45.36984,0 v 9.431984 2.57245 h 11.344529 1.978689 c 1.27517,0 2.374593,-0.46154 3.297991,-1.38493 0.923396,-0.9234 1.384927,-2.04499 1.384927,-3.36413 v -2.50631 c 0,-1.31914 -0.461531,-2.44022 -1.384927,-3.36362 -0.923398,-0.923389 -2.022821,-1.385444 -3.297991,-1.385444 h -1.978689 z m 54.999743,4.089674 -5.8043,14.90607 h 11.6086 z m -94.499656,1.78077 H 32.26226 v 1.38493 c 0,1.05531 -0.395523,1.97889 -1.187008,2.77037 -0.747511,0.74751 -1.67109,1.12138 -2.770372,1.12138 h -7.387146 z m 45.370355,0 h 11.344529 v 1.38493 c 0,1.09928 -0.396041,2.04452 -1.187527,2.836 -0.747511,0.74751 -1.648915,1.12138 -2.704226,1.12138 h -7.452776 z m 52.690841,9.43198 0.52762,1.45108 c 0.17588,0.48368 0.3739,0.96687 0.59376,1.45055 h -2.30839 z m 16.45843,27.84843 c -0.18449,-0.003 -0.3721,0.0106 -0.56276,0.0413 -0.738,0.123 -1.48793,0.43093 -2.25051,0.92294 -0.76261,0.4674 -1.5251,1.06965 -2.28771,1.80765 -0.738,0.73799 -1.45163,1.52521 -2.14044,2.36161 -0.68879,0.81181 -1.34095,1.63632 -1.95595,2.47272 -0.59041,0.8118 -1.11906,1.54961 -1.58647,2.21381 h -4.20646 c -0.0984,0 -0.19719,0.0368 -0.29559,0.11059 -0.0738,0.0492 -0.11059,0.12329 -0.11059,0.22169 0,0.123 0.0368,0.22128 0.11059,0.29508 0.0984,0.0738 0.19719,0.11058 0.29559,0.11058 h 3.65301 c -1.10703,1.67281 -2.06659,3.46846 -2.87838,5.38727 -0.60503,1.43005 -1.12732,2.7846 -1.56838,4.06435 -0.0795,0.0881 -0.14395,0.18337 -0.18655,0.28991 -0.14761,0.2952 -0.31997,0.57843 -0.51677,0.84904 -0.17219,0.246 -0.36874,0.50403 -0.59014,0.77463 -0.39362,0.4428 -0.886,0.89788 -1.4764,1.36529 -0.56581,0.4674 -1.18064,0.9104 -1.84485,1.3286 -0.6396,0.41821 -1.30385,0.79972 -1.99264,1.14412 -0.68881,0.31981 -1.32834,0.56573 -1.91875,0.73794 -0.44281,0.123 -0.82431,0.17188 -1.14411,0.14728 -0.31981,-0.0246 -0.47956,-0.20906 -0.47956,-0.55346 0,-0.3198 0.0983,-0.68871 0.29507,-1.10691 0.2214,-0.41821 0.41845,-0.76241 0.59066,-1.03301 0.0492,-0.1476 0.086,-0.24639 0.11059,-0.29559 0.41823,-0.59041 0.86121,-1.24203 1.3286,-1.95543 0.46741,-0.7134 0.90989,-1.35295 1.32809,-1.91875 0.4182,-0.59041 0.8491,-1.19316 1.29191,-1.80816 0.46738,-0.63961 0.83629,-1.31645 1.10691,-2.02985 0.17219,-0.41821 0.30726,-0.83599 0.40566,-1.25419 0.0984,-0.4182 0.11099,-0.81179 0.0372,-1.1808 -0.0492,-0.369 -0.20945,-0.70112 -0.48007,-0.99632 -0.24598,-0.3198 -0.61489,-0.59044 -1.10691,-0.81184 h -0.0367 c -0.0246,0 -0.0372,0.0121 -0.0372,0.0367 -0.27059,0.8118 -0.5901,1.6605 -0.95911,2.5461 -0.36899,0.86101 -0.76261,1.73439 -1.18081,2.61999 -0.4182,0.86101 -0.84858,1.72178 -1.29139,2.58279 -0.4182,0.861 -0.82441,1.68552 -1.21802,2.47272 -0.2706,0.5166 -0.5039,1.05786 -0.70073,1.62367 -0.19679,0.5658 -0.3203,1.16803 -0.36948,1.80764 0,0.1968 0.0126,0.40595 0.0372,0.62735 0,0.2214 0.0494,0.43056 0.1478,0.62736 0.2214,0.369 0.55302,0.57816 0.9958,0.62735 0.46741,0.0738 0.98448,0.037 1.5503,-0.11059 0.5658,-0.1722 1.16801,-0.41813 1.80764,-0.73794 0.63958,-0.3198 1.25495,-0.66453 1.84536,-1.03353 0.615,-0.369 1.16834,-0.72529 1.66037,-1.0697 0.5166,-0.3444 0.92229,-0.62764 1.21749,-0.84904 0.34909,-0.27926 0.72379,-0.60037 1.11001,-0.94155 -0.0688,0.5724 -0.0767,1.13237 -0.0191,1.67949 0.12298,0.91021 0.65218,1.71002 1.58698,2.39882 0.615,0.4674 1.29134,0.72543 2.02934,0.77463 0.738,0.0492 1.50052,-0.0365 2.28771,-0.25787 0.78722,-0.246 1.5744,-0.59072 2.36162,-1.03353 0.81179,-0.4428 1.57484,-0.90998 2.28823,-1.40198 0.71342,-0.51661 1.36502,-1.02109 1.95543,-1.51309 0.5904,-0.51661 1.08226,-0.9596 1.47588,-1.3286 0.1968,-0.1968 0.38124,-0.36864 0.55346,-0.51625 0.17219,-0.17219 0.31986,-0.34456 0.44287,-0.51676 0.0984,-0.123 0.17248,-0.24597 0.22169,-0.36897 0.0738,-0.1476 0.0859,-0.28266 0.0367,-0.40566 0,-0.246 -0.0615,-0.40627 -0.18449,-0.48007 -0.14761,-0.1968 -0.31997,-0.22149 -0.51676,-0.0739 -0.17222,0.123 -0.35666,0.32006 -0.55346,0.59066 -0.14761,0.2706 -0.30736,0.54124 -0.47955,0.81184 -0.17221,0.246 -0.35667,0.49195 -0.55346,0.73794 -0.2952,0.3198 -0.68881,0.70131 -1.1808,1.14412 -0.49202,0.4428 -1.04537,0.89789 -1.66037,1.36528 -0.61499,0.44282 -1.27924,0.86059 -1.99264,1.25419 -0.68881,0.3936 -1.36567,0.70154 -2.02985,0.92294 -0.66421,0.22141 -1.30373,0.33177 -1.91875,0.33177 -0.615,0 -1.15626,-0.17184 -1.62367,-0.51625 -0.56581,-0.3936 -0.84853,-1.00896 -0.84853,-1.84537 0.0246,-0.8364 0.22168,-1.77127 0.59066,-2.80447 0.36901,-1.03322 0.87296,-2.11523 1.51257,-3.24684 0.6396,-1.15621 1.29175,-2.23873 1.95596,-3.24734 0.66421,-1.0086 1.29114,-1.90669 1.88154,-2.6939 0.59041,-0.81181 1.046,-1.38986 1.3658,-1.73426 h 6.38359 c 0.0984,0 0.18459,-0.0368 0.25838,-0.11058 0.0984,-0.0738 0.14728,-0.17208 0.14728,-0.29508 0,-0.0984 -0.0489,-0.17249 -0.14728,-0.22169 -0.0738,-0.0738 -0.15998,-0.11059 -0.25838,-0.11059 h -5.60896 c 0.12301,-0.2952 0.35687,-0.72559 0.70125,-1.29139 0.34441,-0.56581 0.75009,-1.16856 1.2175,-1.80816 0.49199,-0.66421 1.00858,-1.34052 1.54978,-2.02933 0.5658,-0.7134 1.13178,-1.35346 1.69757,-1.91926 0.56581,-0.59041 1.10707,-1.06968 1.62367,-1.43868 0.54121,-0.3936 1.00838,-0.62744 1.40198,-0.70125 0.0492,0 0.0739,-0.0126 0.0739,-0.0372 v -0.11059 c -0.49815,-0.31365 -1.02417,-0.47499 -1.57768,-0.48421 z m -17.11472,4.58008 c -0.615,0 -1.14369,0.18447 -1.58647,0.55346 -0.44281,0.3444 -0.66404,0.83678 -0.66404,1.47639 -0.0246,0.123 -0.0246,0.25806 0,0.40566 0.0246,0.1476 0.0861,0.28318 0.18449,0.40618 0.24601,0.2706 0.56551,0.35626 0.95911,0.25787 0.4182,-0.0984 0.775,-0.18407 1.07022,-0.25787 0.24598,-0.123 0.47985,-0.27067 0.70125,-0.44287 0.22138,-0.1722 0.39327,-0.36926 0.51625,-0.59066 0.123,-0.22141 0.1724,-0.45473 0.14779,-0.70073 -0.0246,-0.246 -0.17229,-0.49246 -0.44287,-0.73846 -0.12301,-0.0984 -0.25805,-0.18405 -0.40566,-0.25786 -0.14762,-0.0738 -0.30785,-0.11111 -0.48007,-0.11111 z m -23.638351,3.8561 c -0.0984,0 -0.196681,0.006 -0.295071,0.0186 -0.565791,0.123 -1.020882,0.38155 -1.365293,0.77515 -0.319799,0.36901 -0.541559,0.79938 -0.664559,1.29139 -0.0984,0.492 -0.08579,1.00857 0.03721,1.54978 0.14758,0.5166 0.393528,0.98378 0.737939,1.40198 0.123,0.123 0.233363,0.23388 0.331764,0.33228 0.0984,0.0738 0.209269,0.15998 0.332279,0.25838 -0.0738,0.2214 -0.172103,0.44264 -0.295073,0.66404 l -0.36897,0.59067 c -0.1968,0.31981 -0.455345,0.65192 -0.775147,0.99632 -0.295198,0.3198 -0.614704,0.65192 -0.959115,0.99632 -0.319799,0.31981 -0.639831,0.63931 -0.95963,0.95911 -0.31981,0.31981 -0.602546,0.62723 -0.848527,0.92243 -0.205771,0.2286 -0.34494,0.45715 -0.42323,0.68575 -0.003,0.006 -0.007,0.01 -0.01033,0.0155 -0.31981,0.615 -0.701308,1.16835 -1.144117,1.66036 -0.295222,0.3198 -0.700897,0.71341 -1.217499,1.18081 -0.492019,0.44281 -1.045879,0.89789 -1.660879,1.36529 -0.615029,0.4428 -1.266616,0.8611 -1.955435,1.2547 -0.68879,0.3936 -1.377752,0.71364 -2.066541,0.95963 -0.66421,0.22141 -1.315861,0.33177 -1.955438,0.33177 -0.615024,0 -1.156258,-0.17184 -1.623671,-0.51625 -0.344411,-0.29519 -0.578244,-0.63993 -0.701249,-1.03353 -0.0984,-0.41821 -0.147796,-0.8365 -0.147796,-1.2547 0.04919,-0.3444 0.110691,-0.67653 0.184486,-0.99633 0.07382,-0.31981 0.172582,-0.62722 0.295587,-0.92242 v -0.0739 c 0.66421,0.123 1.402024,0.0741 2.213819,-0.14727 0.811794,-0.2214 1.62369,-0.54143 2.435511,-0.95964 0.836403,-0.4428 1.611005,-0.95937 2.324406,-1.54977 0.738,-0.5904 1.353376,-1.21786 1.845366,-1.88206 0.516628,-0.66421 0.860822,-1.34053 1.03301,-2.02933 0.1968,-0.6888 0.147913,-1.32834 -0.147278,-1.91875 -0.369019,-0.8118 -0.824081,-1.34046 -1.365289,-1.58646 -0.541182,-0.2706 -1.119788,-0.35679 -1.734781,-0.25839 -0.590399,0.0984 -1.192641,0.33174 -1.807641,0.70074 -0.590415,0.369 -1.119568,0.77521 -1.586981,1.21801 -0.68879,0.5904 -1.365123,1.29142 -2.029336,2.10323 -0.713393,0.9102 -1.352933,1.83246 -1.918745,2.76727 -0.541179,0.91021 -0.959506,1.93127 -1.254704,3.06287 l -0.147794,0.66404 c -0.02461,0.2214 -0.0614,0.46786 -0.110588,0.73846 v 0.0367 0.70125 c 0,0.2214 0.02469,0.44265 0.0739,0.66405 0.04919,0.2706 0.110665,0.51654 0.184484,0.73794 0.0984,0.1968 0.208759,0.39386 0.331763,0.59066 0.147585,0.2214 0.295257,0.41794 0.442868,0.59014 0.172191,0.1476 0.356658,0.30735 0.553455,0.47956 0.639604,0.4674 1.341139,0.72594 2.103747,0.77515 0.762609,0.0492 1.53719,-0.037 2.324405,-0.25839 0.811797,-0.246 1.62371,-0.5902 2.43551,-1.03301 0.81179,-0.4428 1.574287,-0.92258 2.287717,-1.43919 0.738,-0.5166 1.402242,-1.03317 1.992644,-1.54977 0.615021,-0.5166 1.119483,-0.9596 1.513086,-1.3286 0.172188,-0.1476 0.344027,-0.31945 0.516247,-0.51625 0.172188,-0.22141 0.319857,-0.41846 0.442867,-0.59066 0.0738,-0.123 0.147881,-0.24597 0.221692,-0.36897 0.0628,-0.0942 0.0973,-0.18302 0.110069,-0.26717 0.21349,-0.20621 0.40032,-0.41236 0.544671,-0.61857 0.172189,-0.24601 0.356624,-0.49194 0.553453,-0.73794 0.56578,-0.7134 1.094994,-1.38973 1.586984,-2.02933 0.492019,-0.6396 0.971778,-1.35323 1.439188,-2.14044 l 0.184486,0.0739 c 0.122999,0.0492 0.319524,0.13538 0.590145,0.25838 0.295198,0.123 0.454946,0.27066 0.479557,0.44287 -0.492,1.0332 -0.959172,2.01696 -1.401982,2.95176 -0.369009,0.78721 -0.750517,1.6112 -1.144116,2.4722 -0.369009,0.83641 -0.651738,1.50064 -0.848527,1.99264 -0.344389,0.9102 -0.578239,1.71001 -0.701249,2.39882 -0.12297,0.6888 -0.06151,1.23006 0.184484,1.62367 0.2214,0.3936 0.553542,0.61484 0.996322,0.66405 0.44281,0.0492 0.947275,-0.0123 1.513086,-0.18449 0.565809,-0.1968 1.168549,-0.47952 1.808158,-0.84853 0.639601,-0.369 1.254458,-0.75051 1.844849,-1.14411 0.590421,-0.3936 1.131673,-0.77512 1.623674,-1.14412 0.492024,-0.3936 0.885604,-0.71311 1.180804,-0.95911 0.63961,-0.3444 1.18087,-0.7874 1.62368,-1.3286 0.1968,-0.1722 0.38126,-0.34406 0.55345,-0.51625 0.19682,-0.17221 0.35656,-0.35717 0.47956,-0.55397 l 0.22169,-0.36897 c 0.0738,-0.1476 0.11059,-0.28266 0.11059,-0.40566 -0.0492,-0.0738 -0.086,-0.14738 -0.11059,-0.22118 -0.0246,-0.0984 -0.074,-0.19719 -0.14779,-0.29559 -0.0984,-0.0738 -0.27076,-0.0859 -0.51677,-0.0367 -0.2952,0.246 -0.46706,0.45515 -0.51624,0.62736 -0.24602,0.56579 -0.62752,1.10706 -1.14412,1.62367 -0.54118,0.56579 -1.25431,1.18065 -2.139923,1.84485 -0.885592,0.6396 -1.783673,1.24235 -2.693895,1.80816 -1.033198,0.615 -1.820413,1.02069 -2.361613,1.21749 -0.541207,0.1722 -0.910108,0.1969 -1.106908,0.0739 -0.172191,-0.14761 -0.221586,-0.41824 -0.147793,-0.81184 0.0738,-0.3936 0.209375,-0.84869 0.406175,-1.36529 0.319802,-0.861 0.651912,-1.6235 0.996323,-2.28771 0.369009,-0.66421 0.737888,-1.27904 1.106908,-1.84485 0.369009,-0.5904 0.73792,-1.16898 1.106908,-1.73478 0.393591,-0.56581 0.799298,-1.18065 1.217499,-1.84485 0.467389,-0.7134 0.689157,-1.36503 0.664559,-1.95544 -0.0492,-0.5412 -0.332444,-0.98419 -0.849045,-1.3286 -0.49199,-0.369 -0.983888,-0.66433 -1.475878,-0.88573 -0.0738,-0.0492 -0.159993,-0.0981 -0.258384,-0.14728 -0.0984,-0.0738 -0.208751,-0.15998 -0.331761,-0.25838 0.12301,-0.22141 0.245988,-0.49204 0.368969,-0.81184 0.123,-0.3198 0.196565,-0.63983 0.221176,-0.95963 0.0492,-0.34441 0.03711,-0.66391 -0.03669,-0.95911 -0.0738,-0.3198 -0.258255,-0.56574 -0.553453,-0.73794 -0.172191,-0.0984 -0.369263,-0.1478 -0.590661,-0.1478 -0.0984,-0.0123 -0.196654,-0.0186 -0.295074,-0.0186 z m -22.557795,2.67529 c -0.04919,0 -0.0739,0.0126 -0.0739,0.0372 0,0.0246 -0.01211,0.0367 -0.03669,0.0367 -0.02461,0 -0.0125,0.0247 0.03669,0.0739 0.295223,0.49201 0.467554,1.00858 0.516766,1.54978 0.04919,0.51659 0.01242,1.04526 -0.110588,1.58646 -0.196797,1.03322 -0.578331,2.09105 -1.144116,3.17345 -0.565812,1.05781 -1.230035,2.09096 -1.992644,3.09956 -0.762608,0.98401 -1.586613,1.90679 -2.4722,2.76779 -0.861007,0.83641 -1.697096,1.54951 -2.50889,2.13992 -0.123005,0.0984 -0.283279,0.22188 -0.480076,0.36948 -0.172217,0.123 -0.368742,0.23337 -0.590143,0.33177 -0.221406,0.0984 -0.430556,0.17248 -0.627353,0.22169 -0.196797,0.0246 -0.356553,-0.0248 -0.479557,-0.1478 -0.147585,-0.123 -0.221692,-0.29536 -0.221692,-0.51676 0,-0.246 0.03679,-0.49194 0.110588,-0.73794 0.0984,-0.2706 0.209275,-0.51653 0.332279,-0.73794 0.123005,-0.2214 0.221282,-0.39376 0.295072,-0.51676 0.319801,-0.5658 0.651914,-1.10656 0.996322,-1.62316 0.369015,-0.5412 0.762606,-1.07037 1.180807,-1.58698 0.492019,-0.6396 0.996487,-1.37742 1.513086,-2.21382 0.516599,-0.83641 0.9223,-1.62361 1.217496,-2.36161 0.172217,-0.4428 0.29515,-0.87372 0.368969,-1.29192 0.0984,-0.44279 0.111001,-0.84848 0.03721,-1.21749 -0.04921,-0.36899 -0.208968,-0.71321 -0.479558,-1.03301 -0.246009,-0.3198 -0.615407,-0.59044 -1.107427,-0.81184 h -0.03669 c 0,0.0246 -0.01263,0.0493 -0.03721,0.0739 -0.344408,1.0332 -0.738002,2.04164 -1.180809,3.02565 -0.4182,0.98401 -0.860671,1.96775 -1.328084,2.95176 -0.467386,0.9594 -0.922509,1.93107 -1.36529,2.91507 -0.282604,0.61228 -0.542964,1.23031 -0.785481,1.8526 -0.06334,0.0709 -0.12368,0.14576 -0.189138,0.21394 -0.590415,0.59041 -1.254641,1.05809 -1.992643,1.40249 -0.738002,0.31981 -1.537295,0.50426 -2.398302,0.55346 -0.836401,0.0246 -1.697691,-0.13566 -2.583305,-0.48007 0.0984,-0.1722 0.27078,-0.38084 0.516763,-0.62684 0.319802,-0.3444 0.627203,-0.72591 0.922425,-1.14411 0.295196,-0.4182 0.578456,-0.8486 0.849045,-1.2914 0.319802,-0.51661 0.664023,-1.16874 1.03301,-1.95595 0.393621,-0.8118 0.688938,-1.64788 0.885736,-2.50889 0.196797,-0.861 0.245676,-1.68552 0.147277,-2.47272 -0.07379,-0.81181 -0.405905,-1.46344 -0.996323,-1.95544 -0.270589,-0.2214 -0.565414,-0.34436 -0.885216,-0.36897 -0.319802,-0.0492 -0.651912,-0.0245 -0.99632,0.0739 -0.319802,0.0738 -0.639832,0.19677 -0.959634,0.36897 -0.319801,0.1722 -0.602517,0.34405 -0.848526,0.51625 -0.172191,-0.29521 -0.479645,-0.41817 -0.922425,-0.36897 -0.196797,0.0246 -0.405948,0.0861 -0.627351,0.18448 -0.221403,0.0984 -0.430554,0.20928 -0.627351,0.33228 -0.467413,0.3198 -0.935085,0.7134 -1.402501,1.18081 -0.442804,0.4428 -0.873193,0.93467 -1.291391,1.47588 -0.418203,0.51659 -0.811795,1.04578 -1.180806,1.58698 -0.368991,0.5412 -0.676418,1.06988 -0.922425,1.58647 -0.221406,0.41821 -0.417955,0.84859 -0.590145,1.29139 -0.172218,0.4182 -0.319863,0.8365 -0.442868,1.25471 -0.123005,0.3936 -0.209195,0.76251 -0.258381,1.10691 -0.04921,0.31981 -0.0739,0.65192 -0.0739,0.99632 -0.02461,0.2952 -0.02461,0.60262 0,0.92242 0.02458,0.29521 0.08609,0.59053 0.184487,0.88574 0.246006,0.86101 0.651684,1.43906 1.217496,1.73426 0.565811,0.2952 1.181155,0.39399 1.845365,0.29558 0.68879,-0.0738 1.365123,-0.28295 2.029333,-0.62735 0.688816,-0.34441 1.291558,-0.71383 1.808157,-1.10742 l 0.442868,-0.36897 c 0.172217,-0.14759 0.356658,-0.28266 0.553455,-0.40566 v -0.0367 c 0.934826,0.4182 1.881764,0.62683 2.84117,0.62683 0.959406,-0.0246 1.882177,-0.19644 2.76779,-0.51624 0.566103,-0.22016 1.106782,-0.49662 1.62264,-0.82735 -0.0734,0.29809 -0.142436,0.6325 -0.205671,1.01183 -0.07379,0.5658 -0.01231,1.03298 0.184483,1.40198 0.246009,0.46741 0.541327,0.75065 0.885735,0.84904 0.344408,0.0984 0.701204,0.0984 1.070218,0 0.393594,-0.0738 0.774613,-0.22147 1.143601,-0.44286 0.393621,-0.24601 0.750416,-0.46776 1.070218,-0.66456 0.959406,-0.615 1.918973,-1.29133 2.878376,-2.02933 0.983988,-0.7626 1.906294,-1.53772 2.767274,-2.32493 0.442807,-0.4428 0.947275,-0.97145 1.513086,-1.58646 0.565812,-0.615 1.082389,-1.26715 1.549776,-1.95596 0.467413,-0.7134 0.836295,-1.42652 1.106908,-2.13992 0.270592,-0.73801 0.332071,-1.43903 0.184486,-2.10323 -0.196797,-0.76261 -0.602498,-1.37796 -1.217496,-1.84536 -0.614997,-0.4674 -1.267137,-0.83631 -1.955953,-1.10691 z m -15.704468,1.54512 c 0.06609,0.003 0.130204,0.0173 0.191719,0.0419 0.245984,0.0984 0.405739,0.34434 0.479558,0.73794 0.0984,0.369 0.135194,0.7747 0.110588,1.2175 0,0.4428 -0.0368,0.87318 -0.110588,1.29139 -0.04921,0.3936 -0.09861,0.67684 -0.147794,0.84905 -0.270616,1.2546 -0.688893,2.47219 -1.254704,3.653 -0.565812,1.1808 -1.278914,2.26334 -2.139921,3.24735 -0.516599,-0.5658 -0.873422,-1.19325 -1.070219,-1.88206 -0.172217,-0.71341 -0.233672,-1.42703 -0.184486,-2.14043 0.04921,-0.738 0.196885,-1.46322 0.442868,-2.17662 0.246009,-0.7134 0.541327,-1.36555 0.885732,-1.95595 0.0984,-0.14761 0.258157,-0.39354 0.479558,-0.73794 0.221406,-0.3444 0.479925,-0.68913 0.775147,-1.03353 0.295195,-0.34441 0.590021,-0.62712 0.885219,-0.84852 0.239845,-0.1845 0.458965,-0.27227 0.657323,-0.26304 z m 28.566731,1.11156 c 0.467421,-0.0246 0.676561,0.19716 0.627351,0.66456 -0.0492,0.4674 -0.307734,1.09486 -0.775145,1.88206 -0.442811,0.78721 -1.045559,1.54971 -1.808159,2.28771 -0.738011,0.73801 -1.598777,1.37755 -2.582789,1.91875 -0.959405,0.5412 -1.955739,0.78713 -2.988963,0.73794 0.295222,-0.54121 0.652018,-1.09457 1.070218,-1.66036 0.418201,-0.59041 0.860671,-1.15638 1.328084,-1.69758 0.467387,-0.56581 0.947195,-1.08237 1.439191,-1.54977 0.492016,-0.492 0.971806,-0.92239 1.439187,-1.2914 1.05781,-0.861 1.808226,-1.29191 2.251025,-1.29191 z m -33.799486,2.65721 c -0.172191,0.3936 -0.319863,0.78719 -0.442867,1.1808 -0.123005,0.369 -0.196596,0.76261 -0.221176,1.18081 -0.123005,0.66421 -0.147714,1.32844 -0.0739,1.99264 0.07379,0.6396 0.282945,1.27915 0.627353,1.91875 0.418201,0.68881 0.959464,1.23007 1.623674,1.62367 0.02458,0 0.04877,0.0121 0.07338,0.0367 h 0.147793 c -0.02461,0.0492 -0.06137,0.086 -0.110585,0.11059 l -0.0739,0.0739 c -0.565785,0.5412 -1.205349,1.0089 -1.918745,1.40249 -0.713396,0.39361 -1.365536,0.59015 -1.955954,0.59015 -0.590391,0 -1.032888,-0.25802 -1.328084,-0.77463 -0.295222,-0.51659 -0.307824,-1.41468 -0.03721,-2.69389 0.270589,-0.8364 0.602726,-1.67301 0.996323,-2.50941 0.46741,-0.86101 0.971907,-1.69709 1.513086,-2.50889 0.196797,-0.2706 0.393348,-0.54124 0.590142,-0.81184 0.196798,-0.2952 0.393867,-0.56583 0.590664,-0.81183 z M 5.2199838,174.3145 v 47.35731 h 0.3958415 l 5.0787597,5.07876 H 20.917734 V 210.8549 H 33.58156 c 1.97871,0 3.825349,-0.35169 5.54023,-1.05523 1.758854,-0.74751 3.275975,-1.75876 4.551142,-3.03393 1.319141,-1.31913 2.352559,-2.83626 3.10007,-4.55114 0.747514,-1.75886 1.121379,-3.62766 1.121379,-5.60637 v -2.57246 c 0,-1.97871 -0.373865,-3.82535 -1.121379,-5.54023 -0.747511,-1.71489 -1.758754,-3.20982 -3.033924,-4.48499 l -3.561537,-3.56206 c -1.319141,-1.84679 -3.01211,-3.31957 -5.078762,-4.41885 -2.06665,-1.14325 -4.331504,-1.71514 -6.793899,-1.71514 z m 45.4359852,0 v 47.35731 h 0.395843 l 5.078759,5.07876 h 10.157518 v -15.82952 h 3.495395 l 6.727753,10.75076 h 0.329698 l 5.078759,5.07876 h 11.872142 c -1.626928,-2.5943 -3.341568,-5.34236 -5.144386,-8.24446 -1.758852,-2.90211 -3.451831,-5.67232 -5.078762,-8.3106 1.495018,-0.43971 2.836304,-1.09926 4.023527,-1.97869 1.187227,-0.87942 2.198465,-1.91284 3.033924,-3.10007 0.835461,-1.23119 1.472835,-2.5503 1.912546,-3.95738 0.483679,-1.45105 0.725535,-2.96817 0.725535,-4.55114 v -2.50631 c 0,-1.97871 -0.395526,-3.84753 -1.187006,-5.60638 -0.747511,-1.75886 -1.758754,-3.27597 -3.033924,-4.55114 l -3.49591,-3.49591 c -1.319131,-1.84679 -3.012109,-3.31957 -5.078759,-4.41885 -2.022682,-1.14325 -4.265361,-1.71514 -6.727756,-1.71514 z m 59.155051,0 -18.468128,47.35731 h 0.528133 l 5.078243,5.07876 h 11.410672 c 0.57163,-1.40708 1.12135,-2.88038 1.64899,-4.41937 0.57164,-1.539 1.14351,-3.01177 1.71515,-4.41885 h 14.44459 l 1.45108,3.75946 h 0.32969 l 5.07876,5.07876 h 11.41016 l -18.26969,-46.96147 -4.94698,-4.94647 -0.19792,-0.52813 z m 22.75571,0 14.77429,29.74702 v 17.61029 h 0.39584 l 5.07877,5.07876 h 10.157 v -17.47852 l 14.64251,-29.48295 -5.14438,-5.07876 0.19791,-0.39584 h -11.74036 c -0.65957,1.40708 -1.36347,2.8582 -2.11099,4.35322 -0.7475,1.45106 -1.47307,2.88051 -2.17661,4.28759 l -2.836,5.67201 -4.35322,-8.83822 -4.81469,-4.8147 -0.3297,-0.6599 z M 6.0116668,175.10618 H 28.30488 c 1.890768,0 3.671916,0.37387 5.342826,1.12138 1.67091,0.70354 3.122025,1.67095 4.353221,2.90215 1.231199,1.2312 2.198608,2.68231 2.902149,4.35322 0.747514,1.62694 1.120862,3.38539 1.120862,5.27616 v 2.57245 c 0,1.89078 -0.373348,3.67192 -1.120862,5.34283 -0.703541,1.67092 -1.67095,3.12151 -2.902149,4.35271 -1.231196,1.2312 -2.682311,2.1986 -4.353221,2.90215 -1.67091,0.70354 -3.452058,1.05575 -5.342826,1.05575 H 15.047807 v 6.92515 8.97 H 8.5841195 6.0116668 v -8.97 -9.43198 -4.485 -4.48499 -9.43199 z m 45.4359862,0 h 20.314523 1.978689 c 1.890768,0 3.649741,0.37387 5.27668,1.12138 1.67091,0.70354 3.122025,1.67095 4.353224,2.90215 1.231191,1.2312 2.198608,2.68231 2.902149,4.35322 0.747508,1.67091 1.121378,3.45154 1.121378,5.34231 v 2.5063 c 0,1.539 -0.264031,3.03394 -0.791684,4.485 -0.483685,1.40708 -1.165415,2.70453 -2.044837,3.89176 -0.879425,1.14324 -1.934501,2.15449 -3.165698,3.03392 -1.231196,0.83546 -2.594131,1.45117 -4.089156,1.84691 l 10.091375,16.291 H 76.97271 L 67.079257,205.0506 h -6.66161 v 6.85953 8.97 h -6.397541 -2.572453 v -8.97 -9.43198 -4.485 -4.48499 -9.43199 z m 58.890977,0 h 10.15752 l 17.80821,45.77395 h -10.157 l -3.42976,-8.83822 h -18.5999 l -3.42977,8.83822 H 92.530417 Z m 23.48125,0 h 9.9596 l 8.83822,17.80821 8.83822,-17.80821 h 9.9596 L 157.1027,203.8636 v 17.01653 h -8.96999 V 203.8636 Z m -118.772073,8.96999 v 9.43199 2.5063 H 28.30488 c 1.319141,0 2.440736,-0.46153 3.364134,-1.38493 0.923401,-0.92339 1.38493,-2.02282 1.38493,-3.29799 v -2.57245 c 0,-1.27517 -0.461529,-2.37407 -1.38493,-3.29747 -0.923398,-0.9234 -2.044993,-1.38545 -3.364134,-1.38545 z m 45.36984,0 v 9.43199 2.57245 h 11.344529 1.978689 c 1.27517,0 2.374593,-0.46153 3.297991,-1.38493 0.923396,-0.92339 1.384927,-2.04499 1.384927,-3.36414 v -2.5063 c 0,-1.31914 -0.461531,-2.44022 -1.384927,-3.36362 -0.923398,-0.9234 -2.022821,-1.38545 -3.297991,-1.38545 h -1.978689 z m 54.999743,4.08968 -5.8043,14.90606 h 11.6086 z m -94.499656,1.78077 H 32.26226 v 1.38492 c 0,1.05531 -0.395523,1.9789 -1.187008,2.77038 -0.747511,0.74751 -1.67109,1.12138 -2.770372,1.12138 h -7.387146 z m 45.370355,0 h 11.344529 v 1.38492 c 0,1.09929 -0.396041,2.04453 -1.187527,2.83601 -0.747511,0.74751 -1.648915,1.12138 -2.704226,1.12138 h -7.452776 z m 52.690841,9.43198 0.52762,1.45107 c 0.17588,0.48368 0.3739,0.96688 0.59376,1.45056 h -2.30839 z m -62.695398,29.3827 c -0.885584,0.0246 -1.795782,0.30733 -2.730582,0.84853 -0.934799,0.5166 -1.894366,1.24233 -2.878378,2.17713 -0.959406,0.93481 -1.906344,1.98055 -2.84117,3.13676 -0.934799,1.15621 -1.844969,2.38589 -2.730582,3.68969 -0.861007,1.27921 -1.6603,2.53411 -2.398302,3.76411 -0.270616,0.3936 -0.602703,0.92226 -0.996323,1.58647 -0.393594,0.6396 -0.836607,1.41472 -1.3286,2.32492 l -0.737939,1.10691 c -0.836401,1.47601 -1.586844,2.90275 -2.251027,4.28036 -0.571236,1.18475 -1.132652,2.43699 -1.685684,3.74912 -0.247571,0.24918 -0.52569,0.51718 -0.869199,0.82632 -0.49199,0.4428 -1.04534,0.89789 -1.660364,1.36527 -0.614997,0.44284 -1.279247,0.86112 -1.992643,1.25471 -0.688816,0.39359 -1.365123,0.70101 -2.029333,0.92244 -0.66421,0.22138 -1.303721,0.33227 -1.918745,0.33227 -0.614997,0 -1.156261,-0.17238 -1.623674,-0.51676 -0.565811,-0.39362 -0.849045,-1.00846 -0.849045,-1.84486 0.02461,-0.8364 0.221676,-1.77128 0.590664,-2.80448 0.369014,-1.0332 0.873482,-2.11571 1.513086,-3.24734 0.639601,-1.1562 1.291251,-2.23824 1.955435,-3.24683 0.66421,-1.00862 1.291664,-1.90669 1.882055,-2.69389 0.590418,-0.81181 1.04549,-1.38986 1.365292,-1.73426 h 6.383589 c 0.0984,0 0.184565,-0.0368 0.258382,-0.11059 0.0984,-0.0738 0.147796,-0.17259 0.147796,-0.29559 0,-0.0984 -0.0494,-0.17197 -0.147796,-0.22118 -0.07382,-0.0738 -0.159983,-0.11058 -0.258382,-0.11058 h -5.60896 c 0.123005,-0.2952 0.356841,-0.7256 0.701249,-1.29139 0.344384,-0.56581 0.750602,-1.16857 1.218014,-1.80816 0.491993,-0.66421 1.008571,-1.34105 1.549776,-2.02985 0.565812,-0.7134 1.131242,-1.35295 1.697054,-1.91875 0.565811,-0.59041 1.107074,-1.07019 1.623673,-1.43919 0.541206,-0.3936 1.008904,-0.62693 1.402498,-0.70073 0.04919,0 0.07338,-0.0126 0.07338,-0.0372 v -0.11059 c -0.66421,-0.4182 -1.377315,-0.56586 -2.139921,-0.44286 -0.738003,0.123 -1.488419,0.43041 -2.251028,0.92242 -0.762608,0.4674 -1.525106,1.07015 -2.287714,1.80816 -0.738002,0.738 -1.451621,1.5252 -2.140437,2.36161 -0.68879,0.81181 -1.34044,1.6358 -1.955437,2.4722 -0.590418,0.81181 -1.119572,1.55014 -1.586985,2.21434 h -4.206459 c -0.0984,0 -0.196649,0.0368 -0.295074,0.11058 -0.07379,0.0492 -0.110588,0.12278 -0.110588,0.22118 0,0.123 0.0368,0.22179 0.110588,0.29559 0.09843,0.0738 0.196675,0.11059 0.295074,0.11059 h 3.653007 c -1.106993,1.6728 -2.066065,3.46846 -2.877863,5.38726 -0.811821,1.91879 -1.476044,3.70237 -1.992643,5.35059 -0.270589,1.00862 -0.35678,1.98025 -0.258381,2.91505 0.122978,0.91019 0.651666,1.71 1.586468,2.39882 0.615024,0.46741 1.291846,0.72546 2.029849,0.77465 0.738002,0.0492 1.500529,-0.037 2.287714,-0.2584 0.787218,-0.24601 1.574401,-0.5902 2.361615,-1.03301 0.811795,-0.44281 1.574292,-0.91051 2.287715,-1.4025 0.528188,-0.38248 1.010973,-0.75549 1.471745,-1.12448 -0.170868,0.54062 -0.293741,1.04217 -0.35605,1.49397 -0.07382,0.68879 -0.01231,1.24214 0.184483,1.66036 0.0984,0.17222 0.221359,0.30729 0.36897,0.40566 0.147587,0.0984 0.30734,0.17249 0.479557,0.2217 -0.02461,-0.29522 -0.012,-0.61521 0.03721,-0.95962 0.07379,-0.36899 0.159467,-0.70115 0.257866,-0.99634 0.04921,-0.2214 0.111207,-0.44262 0.185002,-0.66403 0.02461,-0.0492 0.03669,-0.086 0.03669,-0.11059 0,-0.0492 0.01208,-0.0986 0.03669,-0.1478 0,-0.0492 0.0126,-0.086 0.03721,-0.11059 0.196797,-0.46742 0.504224,-1.03336 0.922422,-1.69757 0.418203,-0.66421 0.897985,-1.35311 1.43919,-2.06653 0.541206,-0.73803 1.119235,-1.47579 1.734262,-2.21382 0.639604,-0.76258 1.267055,-1.45156 1.882055,-2.06655 0.639631,-0.615 1.229747,-1.13157 1.770952,-1.54977 0.565811,-0.44281 1.045567,-0.72552 1.439188,-0.84853 0.17219,-0.0492 0.319862,-0.0618 0.442867,-0.0372 0.04919,0.0492 0.0739,0.1233 0.0739,0.22169 0,0.0738 -0.02471,0.20887 -0.0739,0.40567 -0.02461,0.0738 -0.06137,0.13525 -0.110588,0.18447 l -0.111104,0.22169 c -0.123004,0.2952 -0.245993,0.5779 -0.368969,0.84852 -0.123007,0.24601 -0.282763,0.50453 -0.479557,0.77515 -0.196826,0.4182 -0.467429,0.91009 -0.811837,1.4759 -0.319802,0.5412 -0.590436,1.00838 -0.811837,1.40197 -0.1968,0.34441 -0.393348,0.71382 -0.590145,1.10742 -0.172218,0.36901 -0.357175,0.7253 -0.553972,1.06971 -0.270589,0.5166 -0.503936,1.07045 -0.700733,1.66087 -0.172217,0.59039 -0.270467,1.18054 -0.295071,1.77096 -0.04919,0.22137 -0.06182,0.44265 -0.03721,0.66405 0.04921,0.2214 0.110691,0.44318 0.184486,0.66455 0.2214,0.36902 0.553513,0.59026 0.99632,0.66403 0.442807,0.0492 0.947274,-0.0123 1.513086,-0.18447 0.565785,-0.17219 1.16858,-0.41815 1.80816,-0.73795 0.639627,-0.3198 1.254455,-0.66402 1.844847,-1.03301 0.614997,-0.36902 1.168371,-0.72583 1.660363,-1.07021 0.516599,-0.34441 0.922819,-0.62765 1.218015,-0.84905 0.295196,-0.1968 0.565827,-0.40542 0.811837,-0.62683 0.270589,-0.24598 0.528619,-0.50453 0.774628,-0.77515 0.196797,-0.17219 0.381265,-0.34454 0.553456,-0.51675 0.172191,-0.1722 0.319863,-0.34407 0.442867,-0.51626 0.09316,-0.11644 0.16282,-0.24495 0.211873,-0.38343 0.07599,-0.0609 0.155708,-0.12915 0.240295,-0.20723 0.270616,-0.24598 0.491823,-0.49196 0.664043,-0.73794 0.172191,-0.24601 0.356632,-0.49194 0.553453,-0.73795 0.565785,-0.7134 1.094991,-1.38973 1.586984,-2.02933 0.492019,-0.63961 0.971775,-1.35321 1.439188,-2.14043 l 0.184486,0.0739 c 0.123005,0.0492 0.319529,0.13536 0.590145,0.25837 0.295196,0.123 0.454951,0.27014 0.479557,0.44235 -0.491992,1.0332 -0.959175,2.01745 -1.401982,2.95228 -0.369014,0.78718 -0.750522,1.61123 -1.144116,2.47221 -0.369015,0.8364 -0.65173,1.50061 -0.848527,1.99263 -0.344382,0.91019 -0.578244,1.71 -0.701249,2.39882 -0.122978,0.68879 -0.06153,1.22957 0.184483,1.62316 0.221404,0.39362 0.553543,0.61535 0.996323,0.66456 0.442807,0.0492 0.947275,-0.0123 1.513086,-0.1845 0.565812,-0.19677 1.168554,-0.48003 1.808157,-0.84902 0.639607,-0.36899 1.254459,-0.75001 1.84485,-1.14361 0.590418,-0.39362 1.131681,-0.77509 1.623674,-1.14411 0.492019,-0.39359 0.885611,-0.7131 1.180806,-0.95911 0.170789,-0.0919 0.333642,-0.19222 0.490411,-0.29819 -0.02418,0.22929 -0.04083,0.46249 -0.04083,0.70385 -0.02461,0.29522 -0.02461,0.60261 0,0.92241 0.02458,0.2952 0.08609,0.59055 0.184484,0.88575 0.246012,0.86101 0.652229,1.43904 1.218014,1.73424 0.565812,0.29519 1.18064,0.39349 1.84485,0.29509 0.688816,-0.0738 1.365123,-0.28295 2.029333,-0.62736 0.688816,-0.34438 1.291558,-0.71331 1.808157,-1.10691 l 0.442868,-0.36896 c 0.172217,-0.14761 0.356658,-0.28268 0.553455,-0.40566 v -0.0372 c 0.934799,0.4182 1.88228,0.62735 2.841686,0.62735 0.959382,-0.0246 1.881687,-0.19643 2.767274,-0.51623 0.656061,-0.25514 1.278012,-0.58544 1.866551,-0.98909 -0.03919,0.1229 -0.07812,0.25469 -0.117306,0.39841 -0.07382,0.24601 -0.13527,0.50453 -0.184483,0.77515 -0.02461,0.24598 -0.02461,0.49196 0,0.73795 0.02461,0.24601 0.09869,0.45516 0.221692,0.62735 0.246009,0.46741 0.540808,0.75012 0.885216,0.84852 0.368988,0.123 0.737894,0.13507 1.106911,0.0367 0.369009,-0.0738 0.725808,-0.22146 1.070218,-0.44286 0.36901,-0.24601 0.701122,-0.46723 0.996321,-0.66405 0.418221,-0.1968 0.799705,-0.43067 1.144116,-0.70125 0.368991,-0.27062 0.750009,-0.54071 1.143601,-0.81132 -0.0492,0.123 -0.07338,0.23336 -0.07338,0.33176 0,0.0984 -0.01261,0.20928 -0.03721,0.33229 v 0.66402 c 0.0246,0.1968 0.09873,0.39386 0.221692,0.59066 0.196828,0.39359 0.516334,0.61484 0.959114,0.66405 0.467411,0.0738 0.983967,0.037 1.549776,-0.1106 0.56579,-0.17219 1.16858,-0.41809 1.80816,-0.73792 0.639627,-0.3198 1.254458,-0.66455 1.844847,-1.03354 0.615,-0.36902 1.168892,-0.72581 1.660882,-1.07021 0.231328,-0.15423 0.432699,-0.29163 0.619598,-0.42117 -0.007,0.0175 -0.01365,0.0346 -0.02015,0.0522 -0.0984,0.29523 -0.196673,0.66461 -0.295071,1.10742 -0.0738,0.4428 -0.08641,0.86058 -0.03721,1.2542 0.0246,0.39362 0.147589,0.70155 0.368969,0.92292 0.221401,0.22143 0.602906,0.24559 1.144116,0.0734 0.418201,-0.17219 0.811798,-0.36875 1.180807,-0.59016 0.393599,-0.2214 0.775097,-0.45524 1.144116,-0.70125 0.44278,-0.3198 0.860597,-0.65193 1.254186,-0.99631 0.418201,-0.34441 0.824422,-0.7012 1.218012,-1.07022 0.2952,-0.34438 0.59051,-0.67651 0.88573,-0.99631 0.3198,-0.3198 0.61461,-0.65193 0.88522,-0.99634 -0.0492,0.14758 -0.11069,0.30789 -0.18449,0.48008 -0.0492,0.14762 -0.0981,0.28266 -0.14727,0.40566 -0.3198,0.76261 -0.65194,1.513 -0.99632,2.25103 -0.34441,0.71339 -0.70121,1.43912 -1.07022,2.17712 -0.0492,0.0738 -0.0986,0.15999 -0.147794,0.25839 -0.0492,0.0984 -0.09812,0.20878 -0.147278,0.33176 -1.107019,0.34441 -2.36189,0.93507 -3.764111,1.77147 -1.3776,0.86098 -2.718196,1.83266 -4.021976,2.91507 -1.303821,1.10702 -2.447853,2.27574 -3.431831,3.50573 -1.008615,1.2546 -1.660218,2.43538 -1.955437,3.5424 -0.122981,0.4182 -0.184486,0.77452 -0.184486,1.06971 -0.0246,0.3198 -0.01251,0.60304 0.03669,0.84905 0.0984,0.31977 0.221358,0.56576 0.368969,0.73795 0.14759,0.1968 0.332045,0.35652 0.553453,0.47956 0.467381,0.3198 1.021271,0.39391 1.660882,0.22166 0.66421,-0.12297 1.37731,-0.46773 2.139921,-1.03351 0.762609,-0.56581 1.537732,-1.25474 2.324923,-2.06653 0.762609,-0.81179 1.525106,-1.70937 2.287715,-2.69338 0.762611,-0.98398 1.488318,-1.96826 2.177129,-2.95227 0.688819,-0.98401 1.316244,-1.91887 1.882055,-2.80448 0.565816,-0.86101 1.032986,-1.59882 1.401976,-2.21382 0.0984,-0.17219 0.19665,-0.34457 0.29508,-0.51679 0.12298,-0.14761 0.24595,-0.30734 0.36896,-0.47955 0.71341,-0.12301 1.35297,-0.12301 1.91875,0 1.03323,0.17221 1.8204,0.59049 2.36162,1.2547 0.51659,0.56584 0.75045,1.29154 0.70124,2.17713 0,0.4182 -0.0736,0.82388 -0.22117,1.2175 -0.12301,0.4182 -0.35684,0.83648 -0.70125,1.25471 -0.2214,0.27059 -0.49204,0.51655 -0.81184,0.73795 -0.31981,0.24601 -0.61514,0.46776 -0.88573,0.66455 -0.27062,0.19683 -0.46714,0.38127 -0.59015,0.55346 -0.123,0.1968 -0.0862,0.38126 0.11059,0.55346 0.24598,0.2214 0.52873,0.28286 0.84853,0.18446 0.3198,-0.0984 0.61512,-0.27077 0.88573,-0.51675 0.2952,-0.24601 0.55377,-0.52869 0.77515,-0.84852 0.24601,-0.2952 0.43047,-0.54116 0.55345,-0.73795 0.29523,-0.49202 0.50437,-1.00857 0.62736,-1.54977 0.14761,-0.51663 0.22117,-1.02108 0.22117,-1.5131 0.0246,-0.49197 -0.049,-0.97176 -0.22117,-1.43918 -0.1722,-0.46738 -0.39394,-0.8731 -0.66456,-1.2175 -0.66418,-0.81182 -1.61116,-1.3284 -2.84117,-1.54977 -0.24599,-0.0492 -0.50402,-0.0865 -0.77463,-0.1111 -0.24601,0 -0.51662,0.0126 -0.81184,0.0372 0.27062,-0.46741 0.52862,-0.91041 0.77463,-1.32861 0.27059,-0.44278 0.54125,-0.89786 0.81184,-1.36527 0.24601,-0.3936 0.56604,-0.93488 0.95963,-1.62367 0.3936,-0.68882 0.73782,-1.40192 1.03301,-2.13993 0.2952,-0.7626 0.47967,-1.50095 0.55345,-2.21435 0.0738,-0.738 -0.086,-1.35281 -0.47955,-1.84483 -0.2214,-0.2952 -0.51673,-0.47964 -0.88574,-0.55346 -0.0246,0 -0.0367,-0.0126 -0.0367,-0.0372 v -0.0367 h -0.0739 l -0.0739,-0.0367 c -0.0246,0 -0.0493,0.0121 -0.0739,0.0367 -0.123,0.4182 -0.25807,0.81176 -0.40566,1.18081 -0.14761,0.36898 -0.31997,0.7626 -0.51676,1.1808 l -0.0739,0.18447 c -0.1968,0.24601 -0.40595,0.49197 -0.62735,0.73795 -0.1968,0.24601 -0.39335,0.49191 -0.59015,0.73792 -0.27062,0.34441 -0.54121,0.67654 -0.81183,0.99635 -0.24599,0.29516 -0.51664,0.6152 -0.81184,0.95961 -0.3198,0.3198 -0.63983,0.63932 -0.95963,0.95912 -0.295201,0.3198 -0.602626,0.62772 -0.922425,0.92294 -0.565809,0.615 -1.143871,1.14369 -1.734262,1.58647 -0.4182,0.29522 -0.737714,0.47966 -0.959114,0.55346 -0.1968,0.0738 -0.344467,0.0617 -0.442865,-0.0367 -0.0738,-0.12301 -0.0985,-0.30747 -0.0739,-0.55346 0.0492,-0.27061 0.135371,-0.57801 0.258381,-0.92241 0.17222,-0.44281 0.381373,-0.88583 0.627351,-1.32861 0.246012,-0.4428 0.528727,-0.84899 0.848529,-1.21801 0.9348,-1.353 2.054125,-2.61948 3.357935,-3.80029 1.32839,-1.18081 2.71838,-2.14037 4.16977,-2.87837 0.36902,-0.19683 0.75001,-0.36915 1.1436,-0.51676 0.3936,-0.17219 0.79981,-0.28255 1.21801,-0.33176 0.2952,-0.0246 0.57794,-0.0125 0.84853,0.0367 0.29522,0.0492 0.55375,0.17219 0.77515,0.36899 h 0.0739 0.0367 c 0,-0.0246 0.0121,-0.0367 0.0367,-0.0367 0.0492,-0.14761 0.0739,-0.3079 0.0739,-0.48006 v -0.44236 c -0.0246,-0.1968 -0.0493,-0.38179 -0.0739,-0.55397 -0.0246,-0.19681 -0.0861,-0.39335 -0.18448,-0.59015 -0.1968,-0.369 -0.44272,-0.67643 -0.73794,-0.92242 -0.1968,-0.17221 -0.40595,-0.28308 -0.62735,-0.33228 -0.1968,-0.0492 -0.41805,-0.086 -0.66404,-0.11059 -0.3198,-0.0492 -0.62721,-0.0371 -0.92243,0.0367 -0.2952,0.0738 -0.57845,0.17259 -0.84904,0.29559 -0.44281,0.1476 -0.8732,0.35623 -1.2914,0.62683 -0.39359,0.2706 -0.78718,0.54124 -1.1808,0.81184 -0.59039,0.46741 -1.16845,0.9598 -1.73426,1.47639 -0.54121,0.49199 -1.05779,1.02065 -1.54978,1.58646 -0.54121,0.615 -1.069866,1.24246 -1.586468,1.88206 -0.491987,0.615 -0.959696,1.25455 -1.402498,1.91876 -0.393599,0.59039 -0.750419,1.20523 -1.070218,1.84484 -0.0549,0.10551 -0.106979,0.21291 -0.159679,0.31988 -0.31819,0.31848 -0.671668,0.64201 -1.06712,0.97152 -0.565809,0.46741 -1.180637,0.91041 -1.844847,1.32861 -0.639601,0.4182 -1.303853,0.78711 -1.992643,1.10691 -0.688811,0.3198 -1.340953,0.55364 -1.955954,0.70125 -0.4182,0.14758 -0.787109,0.20907 -1.10691,0.18447 -0.3198,-0.0246 -0.479558,-0.20905 -0.479558,-0.55346 0,-0.27061 0.0983,-0.61481 0.295074,-1.03301 0.196821,-0.44281 0.430665,-0.88577 0.701249,-1.32861 0.270621,-0.46738 0.541248,-0.89775 0.811837,-1.29138 0.27059,-0.4182 0.479743,-0.7503 0.627351,-0.99631 0.12301,-0.14758 0.233363,-0.3079 0.331764,-0.48009 0.12301,-0.17221 0.24597,-0.35665 0.368969,-0.55345 0.221411,-0.27062 0.455269,-0.59013 0.701249,-0.95912 0.270621,-0.36901 0.529138,-0.75049 0.775147,-1.14411 0.24601,-0.4182 0.467241,-0.82391 0.664041,-1.2175 0.221401,-0.3936 0.393766,-0.76251 0.516766,-1.10692 0.196799,-0.4182 0.331869,-0.8365 0.405659,-1.2547 0.0984,-0.41819 0.111027,-0.81179 0.03721,-1.1808 -0.0492,-0.36901 -0.196858,-0.71372 -0.442867,-1.03353 -0.24601,-0.3198 -0.614911,-0.58992 -1.106909,-0.81132 h -0.03721 c -0.0246,0 -0.03669,0.0242 -0.03669,0.0734 -0.29519,0.861 -0.615222,1.73441 -0.95963,2.62 -0.344382,0.88562 -0.71332,1.75898 -1.106911,2.61999 -0.393621,0.861 -0.811924,1.69759 -1.254704,2.50941 -0.442804,0.8118 -0.909961,1.54964 -1.40198,2.21382 -0.49199,0.76261 -1.070081,1.46363 -1.734262,2.10323 -0.639601,0.615 -1.328541,1.19306 -2.066541,1.73426 l -0.442867,0.33229 c -0.17222,0.12298 -0.369261,0.24599 -0.590662,0.36896 -0.2214,0.0984 -0.44264,0.17196 -0.66404,0.22117 -0.196797,0.0246 -0.356553,-0.0243 -0.479558,-0.14727 -0.17219,-0.12298 -0.258384,-0.29538 -0.258384,-0.51675 0.02461,-0.24599 0.074,-0.49197 0.147797,-0.73795 0.0984,-0.27062 0.208756,-0.51655 0.331761,-0.73795 0.123004,-0.22141 0.221797,-0.39378 0.295589,-0.51676 0.344409,-0.56581 0.688602,-1.10704 1.033013,-1.62367 0.36902,-0.54118 0.762606,-1.06987 1.180806,-1.58647 0.467411,-0.66421 0.959279,-1.4025 1.475878,-2.21432 0.541211,-0.8364 0.947425,-1.62362 1.218015,-2.36162 0.17222,-0.44278 0.29515,-0.8732 0.368969,-1.2914 0.0984,-0.44281 0.110479,-0.84849 0.03669,-1.2175 -0.0738,-0.36901 -0.233556,-0.71372 -0.479557,-1.03353 -0.245989,-0.3198 -0.602809,-0.58992 -1.070219,-0.81132 H 85.06007 c 0,0.0492 -0.01261,0.0734 -0.03721,0.0734 -0.34439,1.03321 -0.738008,2.04216 -1.180807,3.02617 -0.4182,0.98401 -0.860676,1.96778 -1.328086,2.95177 -0.44281,0.95943 -0.885794,1.93108 -1.3286,2.91507 -0.196586,0.45104 -0.384019,0.90519 -0.564306,1.36168 -0.188542,0.2473 -0.383858,0.48564 -0.594281,0.70485 -0.590391,0.59039 -1.254641,1.05756 -1.992643,1.40197 -0.738002,0.3198 -1.537811,0.5048 -2.398818,0.55399 -0.836428,0.0246 -1.697175,-0.13568 -2.582789,-0.48009 0.0984,-0.17219 0.270238,-0.38134 0.516247,-0.62735 0.319802,-0.34441 0.627745,-0.72536 0.922941,-1.14359 0.295196,-0.4182 0.577937,-0.84859 0.848527,-1.2914 0.319802,-0.51663 0.664025,-1.16874 1.033012,-1.95596 0.393621,-0.81177 0.688938,-1.64841 0.885735,-2.50939 0.196798,-0.86098 0.246193,-1.68502 0.147794,-2.4722 -0.07382,-0.81183 -0.405905,-1.46344 -0.99632,-1.95544 -0.270592,-0.2214 -0.565933,-0.34437 -0.885735,-0.36897 -0.319802,-0.0492 -0.651942,-0.025 -0.996323,0.0734 -0.319802,0.0738 -0.639829,0.19677 -0.959631,0.36897 -0.319802,0.1722 -0.602543,0.34456 -0.848526,0.51676 -0.172218,-0.2952 -0.479645,-0.41817 -0.922425,-0.36897 -0.196824,0.0246 -0.405948,0.0861 -0.627351,0.18449 -0.221403,0.0984 -0.430557,0.20928 -0.627354,0.33228 -0.467413,0.3198 -0.934566,0.7134 -1.401979,1.18081 -0.442783,0.44282 -0.87371,0.93468 -1.291913,1.47588 -0.418198,0.5166 -0.811789,1.04526 -1.180806,1.58647 -0.368988,0.5412 -0.676413,1.07037 -0.922425,1.58697 -0.221401,0.4182 -0.417925,0.84862 -0.590142,1.2914 -0.166714,0.40495 -0.309325,0.80997 -0.429948,1.21492 -0.07853,0.0874 -0.15529,0.17491 -0.241329,0.26096 -0.541179,0.56578 -1.254308,1.18115 -2.139921,1.84536 -0.885587,0.63958 -1.783676,1.24238 -2.693893,1.80816 -1.033197,0.61503 -1.82041,1.02071 -2.361615,1.21751 -0.541202,0.17216 -0.910084,0.1969 -1.106908,0.0739 -0.172191,-0.14761 -0.221588,-0.41823 -0.147794,-0.81185 0.07382,-0.39359 0.209378,-0.8487 0.406176,-1.3653 0.319801,-0.86101 0.651914,-1.62351 0.996322,-2.2877 0.369015,-0.66423 0.737894,-1.27955 1.106909,-1.84539 0.369014,-0.59039 0.737923,-1.16845 1.10691,-1.73423 0.393592,-0.56582 0.799296,-1.18068 1.217497,-1.84486 0.467386,-0.71343 0.689165,-1.36557 0.664559,-1.95596 -0.04921,-0.54121 -0.332447,-0.98367 -0.849045,-1.32808 -0.49202,-0.36898 -0.983885,-0.66434 -1.475878,-0.88574 -0.07382,-0.0492 -0.159983,-0.0986 -0.258384,-0.14779 -0.0984,-0.0738 -0.208756,-0.15947 -0.331761,-0.25787 0.123005,-0.2214 0.245991,-0.49202 0.368969,-0.81183 0.123005,-0.31979 0.19657,-0.63983 0.221176,-0.95963 0.04919,-0.3444 0.0371,-0.66392 -0.03669,-0.95912 -0.07379,-0.3198 -0.25826,-0.56626 -0.553455,-0.73846 -0.172191,-0.0984 -0.369258,-0.14727 -0.590661,-0.14727 -0.196797,-0.0246 -0.393348,-0.0246 -0.590146,0 -0.565785,0.123 -1.020884,0.38103 -1.365292,0.77463 -0.319802,0.369 -0.541554,0.7999 -0.664559,1.29191 -0.0984,0.492 -0.0858,1.00857 0.03721,1.54977 0.147585,0.5166 0.393557,0.98379 0.737939,1.40199 l 0.331764,0.33228 c 0.0984,0.0738 0.209275,0.15998 0.332279,0.25838 -0.07379,0.2214 -0.172095,0.44262 -0.295074,0.66403 -0.123004,0.19679 -0.245964,0.39335 -0.368969,0.59015 -0.196797,0.3198 -0.455345,0.65191 -0.775147,0.99632 -0.295193,0.3198 -0.614707,0.65193 -0.959115,0.99634 -0.319802,0.3198 -0.639828,0.63981 -0.95963,0.95961 -0.319802,0.31981 -0.602544,0.62725 -0.848527,0.92242 -0.07175,0.0797 -0.132887,0.15957 -0.189137,0.23926 -0.106786,0.0487 -0.196385,0.11475 -0.263033,0.20363 -0.07382,0.0984 -0.159983,0.19666 -0.258382,0.29506 -0.147611,0.27059 -0.319966,0.54126 -0.516763,0.81185 -0.196797,0.27061 -0.393348,0.5412 -0.590145,0.81182 -0.393594,0.44281 -0.873405,0.91001 -1.439188,1.402 -0.565811,0.46741 -1.180639,0.92247 -1.844849,1.36528 -0.66421,0.4182 -1.341035,0.7997 -2.029852,1.14411 -0.664181,0.34441 -1.303747,0.60293 -1.918745,0.77515 -0.4182,0.0984 -0.787109,0.1352 -1.106908,0.11059 -0.295225,-0.0246 -0.442868,-0.19695 -0.442868,-0.51675 0,-0.34441 0.08619,-0.71335 0.258382,-1.10692 0.172217,-0.4182 0.344575,-0.77504 0.516766,-1.07023 0.04921,-0.0492 0.0739,-0.0981 0.0739,-0.14727 0.02461,-0.0492 0.0614,-0.0986 0.110588,-0.1478 0.270589,-0.41823 0.528648,-0.82439 0.774631,-1.21801 0.270616,-0.39359 0.541221,-0.78721 0.811837,-1.18081 0.738002,-1.08241 1.488416,-2.1523 2.251025,-3.21013 0.762608,-1.08239 1.513022,-2.16493 2.251025,-3.24734 0.221403,-0.36899 0.332279,-0.76263 0.332279,-1.18082 0,-0.3936 -0.0988,-0.76251 -0.29559,-1.10691 -0.04921,-0.1968 -0.147486,-0.34446 -0.295071,-0.44287 -0.147611,-0.0984 -0.319969,-0.17197 -0.516766,-0.22117 -0.295195,-0.0738 -0.676211,-0.0123 -1.143598,0.18448 -0.442806,0.1968 -0.935191,0.47953 -1.476396,0.84853 -0.516599,0.369 -1.057343,0.78732 -1.623158,1.25471 -0.565785,0.46741 -1.094991,0.93456 -1.586981,1.40197 -0.492022,0.46739 -0.934463,0.91041 -1.328084,1.32861 -0.393594,0.39359 -0.688938,0.68892 -0.885735,0.88574 0.713396,-1.03322 1.537401,-2.23872 2.472201,-3.61632 0.934799,-1.37759 1.943245,-2.80435 3.025655,-4.28036 1.082411,-1.47601 2.189647,-2.95215 3.321244,-4.42816 1.156202,-1.47601 2.300237,-2.81656 3.431831,-4.02197 1.131622,-1.23 2.213633,-2.26315 3.246831,-3.09956 1.057804,-0.861 2.029455,-1.40227 2.915068,-1.62367 l 0.0739,-0.0739 v -0.0739 c -0.762606,-0.66421 -1.586585,-0.98372 -2.472201,-0.95912 z m 73.295788,0 c -0.88561,0.0246 -1.79579,0.30733 -2.73059,0.84853 -0.93482,0.5166 -1.89385,1.24233 -2.87786,2.17713 -0.9594,0.93481 -1.90688,1.98055 -2.84168,3.13676 -0.93482,1.15621 -1.845,2.38589 -2.73059,3.68969 -0.861,1.27921 -1.6603,2.53411 -2.3983,3.76411 -0.27059,0.3936 -0.60272,0.92226 -0.99632,1.58647 -0.39359,0.6396 -0.83661,1.41472 -1.3286,2.32492 l -0.73794,1.10691 c -0.8364,1.47601 -1.58682,2.90275 -2.25103,4.28036 -0.66419,1.3776 -1.31583,2.84112 -1.95543,4.39094 -0.36899,0.9348 -0.60286,1.7593 -0.70125,2.47272 -0.0738,0.68879 -0.0123,1.24214 0.18448,1.66036 0.0984,0.17222 0.22136,0.30729 0.36897,0.40566 0.14761,0.0984 0.30737,0.17249 0.47956,0.2217 -0.0246,-0.29522 -0.012,-0.61521 0.0372,-0.95962 0.0738,-0.36899 0.15998,-0.70115 0.25838,-0.99634 0.0492,-0.2214 0.11067,-0.44262 0.18449,-0.66403 0.0246,-0.0492 0.0367,-0.086 0.0367,-0.11059 0,-0.0492 0.0126,-0.0986 0.0372,-0.1478 0,-0.0492 0.0121,-0.086 0.0367,-0.11059 0.1968,-0.46742 0.50422,-1.03336 0.92243,-1.69757 0.4182,-0.66421 0.89798,-1.35311 1.43918,-2.06653 0.54121,-0.73803 1.11926,-1.47579 1.73426,-2.21382 0.63961,-0.76258 1.26703,-1.45156 1.88206,-2.06655 0.6396,-0.615 1.22975,-1.13157 1.77095,-1.54977 0.56581,-0.44281 1.0456,-0.72552 1.43919,-0.84853 0.17222,-0.0492 0.31987,-0.0618 0.44287,-0.0372 0.0492,0.0492 0.0739,0.1233 0.0739,0.22169 0,0.0738 -0.0247,0.20887 -0.0739,0.40567 -0.0246,0.0738 -0.0614,0.13525 -0.11059,0.18447 l -0.11059,0.22169 c -0.12301,0.2952 -0.24648,0.5779 -0.36948,0.84852 -0.12301,0.24601 -0.28276,0.50453 -0.47956,0.77515 -0.1968,0.4182 -0.46743,0.91009 -0.81184,1.4759 -0.3198,0.5412 -0.59042,1.00838 -0.81184,1.40197 -0.1968,0.34441 -0.39334,0.71382 -0.59014,1.10742 -0.17219,0.36901 -0.35665,0.7253 -0.55345,1.06971 -0.27061,0.5166 -0.50445,1.07045 -0.70125,1.66087 -0.17219,0.59039 -0.27048,1.18054 -0.29508,1.77096 -0.0492,0.22137 -0.0618,0.44265 -0.0372,0.66405 0.0492,0.2214 0.11068,0.44318 0.18448,0.66455 0.2214,0.36902 0.55351,0.59026 0.99632,0.66403 0.44278,0.0492 0.94728,-0.0123 1.51309,-0.18447 0.56581,-0.17219 1.16856,-0.41815 1.80816,-0.73795 0.63961,-0.3198 1.25445,-0.66402 1.84485,-1.03301 0.61502,-0.36902 1.16889,-0.72583 1.66088,-1.07021 0.5166,-0.34441 0.9223,-0.62765 1.2175,-0.84905 0.29521,-0.1968 0.56582,-0.40542 0.81183,-0.62683 0.27059,-0.24598 0.52865,-0.50453 0.77463,-0.77515 0.19682,-0.17219 0.38127,-0.34454 0.55346,-0.51675 0.17222,-0.1722 0.31986,-0.34407 0.44286,-0.51626 0.0984,-0.123 0.17247,-0.25858 0.2217,-0.40619 0.0738,-0.14761 0.0859,-0.29527 0.0367,-0.44286 0,-0.17221 -0.0615,-0.31985 -0.18449,-0.44286 -0.19682,-0.12298 -0.36914,-0.12298 -0.51676,0 -0.12297,0.0492 -0.22129,0.1233 -0.29508,0.2217 -0.0738,0.0984 -0.15998,0.19666 -0.25838,0.29506 -0.14759,0.27059 -0.31945,0.54126 -0.51625,0.81185 -0.1968,0.27061 -0.39386,0.5412 -0.59066,0.81182 -0.39362,0.44281 -0.87337,0.91001 -1.43919,1.402 -0.56581,0.46741 -1.18063,0.92247 -1.84484,1.36528 -0.66419,0.4182 -1.34053,0.7997 -2.02934,1.14411 -0.66419,0.34441 -1.30375,0.60293 -1.91875,0.77515 -0.4182,0.0984 -0.78761,0.1352 -1.10742,0.11059 -0.29519,-0.0246 -0.44235,-0.19695 -0.44235,-0.51675 0,-0.34441 0.0857,-0.71335 0.25786,-1.10692 0.1722,-0.4182 0.34456,-0.77504 0.51677,-1.07023 0.0492,-0.0492 0.0739,-0.0981 0.0739,-0.14727 0.0246,-0.0492 0.0614,-0.0986 0.11058,-0.1478 0.27062,-0.41823 0.52914,-0.82439 0.77515,-1.21801 l 0.81184,-1.18081 c 0.738,-1.08241 1.48792,-2.1523 2.25051,-3.21013 0.7626,-1.08239 1.51302,-2.16493 2.25102,-3.24734 0.2214,-0.36899 0.33228,-0.76263 0.33228,-1.18082 0,-0.3936 -0.0983,-0.76251 -0.29507,-1.10691 -0.0492,-0.1968 -0.14798,-0.34446 -0.29559,-0.44287 -0.14761,-0.0984 -0.31945,-0.17197 -0.51625,-0.22117 -0.29519,-0.0738 -0.6767,-0.0123 -1.14412,0.18448 -0.4428,0.1968 -0.93466,0.47953 -1.47587,0.84853 -0.5166,0.369 -1.05789,0.78732 -1.62368,1.25471 -0.56581,0.46741 -1.09498,0.93456 -1.58698,1.40197 -0.49199,0.46739 -0.93449,0.91041 -1.32809,1.32861 -0.3936,0.39359 -0.68893,0.68892 -0.88573,0.88574 0.7134,-1.03322 1.5374,-2.23872 2.4722,-3.61632 0.9348,-1.37759 1.94376,-2.80435 3.02617,-4.28036 1.08238,-1.47601 2.18911,-2.95215 3.32073,-4.42816 1.1562,-1.47601 2.30021,-2.81656 3.43183,-4.02197 1.1316,-1.23 2.21415,-2.26315 3.24735,-3.09956 1.0578,-0.861 2.02946,-1.40227 2.91507,-1.62367 l 0.0739,-0.0739 v -0.0739 c -0.76261,-0.66421 -1.58712,-0.98372 -2.47271,-0.95912 z m 28.65251,4.71858 c -0.18449,-0.003 -0.3721,0.0106 -0.56275,0.0413 -0.73801,0.123 -1.48843,0.43041 -2.25103,0.92242 -0.76261,0.4674 -1.52512,1.07015 -2.28772,1.80816 -0.73801,0.738 -1.45113,1.5252 -2.13992,2.36161 -0.68881,0.81181 -1.34095,1.6358 -1.95595,2.4722 -0.59039,0.81181 -1.11906,1.55014 -1.58647,2.21434 h -4.20697 c -0.0984,0 -0.19668,0.0368 -0.29508,0.11058 -0.0738,0.0492 -0.11059,0.12278 -0.11059,0.22118 0,0.123 0.0368,0.22179 0.11059,0.29559 0.0984,0.0738 0.19669,0.11059 0.29508,0.11059 h 3.65352 c -1.10699,1.6728 -2.06655,3.46846 -2.87838,5.38726 -0.60518,1.43045 -1.12829,2.78535 -1.56941,4.06538 -0.0791,0.0878 -0.14308,0.18277 -0.18552,0.28887 -0.14759,0.29522 -0.31996,0.57843 -0.51676,0.84905 -0.17219,0.24598 -0.36926,0.50406 -0.59067,0.77465 -0.39362,0.4428 -0.88545,0.89786 -1.47587,1.36527 -0.56578,0.46739 -1.18064,0.91038 -1.84485,1.32861 -0.6396,0.4182 -1.30383,0.7992 -1.99265,1.14361 -0.68879,0.3198 -1.32835,0.5657 -1.91874,0.73792 -0.4428,0.123 -0.82432,0.1724 -1.14412,0.1478 -0.31983,-0.0246 -0.47956,-0.20905 -0.47956,-0.55346 0,-0.3198 0.0983,-0.68871 0.29508,-1.10691 0.2214,-0.4182 0.41847,-0.7629 0.59066,-1.03352 0.0492,-0.14758 0.086,-0.24587 0.11059,-0.29508 0.41819,-0.5904 0.86119,-1.24204 1.3286,-1.95543 0.46739,-0.71343 0.90988,-1.35348 1.32808,-1.91927 0.4182,-0.59041 0.8486,-1.19263 1.29139,-1.80763 0.46739,-0.6396 0.83681,-1.31646 1.10743,-2.02986 0.17219,-0.41822 0.30726,-0.8365 0.40566,-1.2547 0.0984,-0.4182 0.11048,-0.81179 0.0367,-1.1808 -0.0492,-0.36902 -0.20897,-0.70113 -0.47956,-0.99633 -0.24601,-0.3198 -0.61492,-0.58992 -1.10691,-0.81132 h -0.0367 c -0.0246,0 -0.0372,0.0121 -0.0372,0.0367 -0.27059,0.8118 -0.5901,1.66048 -0.95912,2.5461 -0.36898,0.86101 -0.76259,1.73439 -1.1808,2.62001 -0.4182,0.86101 -0.84912,1.72177 -1.29191,2.58278 -0.4182,0.86101 -0.82388,1.68497 -1.2175,2.47219 -0.27059,0.5166 -0.50443,1.05788 -0.70125,1.62367 -0.1968,0.56581 -0.31976,1.16856 -0.36897,1.80816 0,0.1968 0.0126,0.40595 0.0372,0.62735 0,0.22143 0.0489,0.43053 0.14727,0.62736 0.22141,0.36898 0.55352,0.57814 0.99633,0.62735 0.4674,0.0738 0.98398,0.037 1.54977,-0.1106 0.56581,-0.17219 1.16856,-0.41809 1.80816,-0.73792 0.6396,-0.3198 1.25443,-0.66455 1.84485,-1.03354 0.615,-0.36902 1.16889,-0.72581 1.66088,-1.07021 0.5166,-0.34441 0.9223,-0.62712 1.2175,-0.84852 0.34893,-0.27914 0.72344,-0.6005 1.10949,-0.94155 -0.0688,0.5724 -0.0762,1.13239 -0.0186,1.67947 0.12301,0.91019 0.65215,1.71 1.58698,2.39882 0.615,0.46741 1.29132,0.72546 2.02933,0.77465 0.738,0.0492 1.5005,-0.037 2.28772,-0.2584 0.78719,-0.24601 1.57442,-0.5902 2.36161,-1.03301 0.81182,-0.44281 1.57432,-0.91051 2.28772,-1.4025 0.71339,-0.5166 1.36556,-1.02058 1.95595,-1.51257 0.59039,-0.5166 1.08228,-0.95957 1.47588,-1.32858 0.19682,-0.1968 0.38126,-0.36864 0.55345,-0.51626 0.17222,-0.17219 0.31987,-0.34454 0.44287,-0.51675 0.0984,-0.12301 0.17196,-0.24599 0.22118,-0.36899 0.0738,-0.14761 0.0864,-0.28316 0.0372,-0.40616 0,-0.24599 -0.0615,-0.40574 -0.18448,-0.47956 -0.14761,-0.1968 -0.31997,-0.22148 -0.51677,-0.0739 -0.17219,0.12301 -0.35663,0.32004 -0.55345,0.59066 -0.14759,0.27059 -0.30734,0.54126 -0.47956,0.81184 -0.17219,0.24601 -0.35663,0.49192 -0.55345,0.73793 -0.2952,0.3198 -0.68879,0.7008 -1.18081,1.14361 -0.492,0.4428 -1.04588,0.89789 -1.66088,1.36527 -0.615,0.44284 -1.27925,0.86112 -1.99264,1.25471 -0.68882,0.39359 -1.36513,0.70101 -2.02934,0.92244 -0.66418,0.22138 -1.30374,0.33227 -1.91874,0.33227 -0.61499,0 -1.15629,-0.17238 -1.62368,-0.51676 -0.56581,-0.39362 -0.84852,-1.00846 -0.84852,-1.84486 0.0246,-0.8364 0.22115,-1.77128 0.59014,-2.80448 0.36899,-1.0332 0.87349,-2.11571 1.51309,-3.24734 0.63961,-1.1562 1.29122,-2.23824 1.95543,-3.24683 0.66421,-1.00862 1.29164,-1.90669 1.88206,-2.69389 0.59039,-0.81181 1.04549,-1.38986 1.36529,-1.73426 h 6.38411 c 0.0984,0 0.18406,-0.0368 0.25786,-0.11059 0.0984,-0.0738 0.1478,-0.17259 0.1478,-0.29559 0,-0.0984 -0.0494,-0.17197 -0.1478,-0.22118 -0.0738,-0.0738 -0.15946,-0.11058 -0.25786,-0.11058 h -5.60896 c 0.123,-0.2952 0.35684,-0.7256 0.70125,-1.29139 0.34441,-0.56581 0.75007,-1.16857 1.21749,-1.80816 0.49199,-0.66421 1.00857,-1.34105 1.54978,-2.02985 0.56578,-0.7134 1.13176,-1.35295 1.69757,-1.91875 0.56579,-0.59041 1.10707,-1.07019 1.62367,-1.43919 0.54121,-0.3936 1.00838,-0.62693 1.40198,-0.70073 0.0492,0 0.0739,-0.0126 0.0739,-0.0372 v -0.11059 c -0.49815,-0.31365 -1.02417,-0.47498 -1.57768,-0.4842 z m -17.11472,4.58008 c -0.61499,0 -1.14366,0.18445 -1.58646,0.55345 -0.44281,0.3444 -0.66456,0.83627 -0.66456,1.47588 -0.0246,0.123 -0.0246,0.25858 0,0.40618 0.0246,0.1476 0.0861,0.28266 0.18448,0.40566 0.24601,0.2706 0.56604,0.35678 0.95963,0.25838 0.41821,-0.0984 0.77502,-0.18458 1.07022,-0.25838 0.24601,-0.123 0.47932,-0.27015 0.70074,-0.44235 0.2214,-0.1722 0.39376,-0.36926 0.51676,-0.59066 0.12301,-0.22141 0.1724,-0.45525 0.1478,-0.70125 -0.0246,-0.24601 -0.17228,-0.49194 -0.44287,-0.73794 -0.123,-0.0984 -0.25857,-0.18458 -0.40618,-0.25838 -0.14761,-0.0738 -0.30736,-0.11059 -0.47956,-0.11059 z m -66.152547,8.07651 c 0.06612,0.003 0.129688,0.0167 0.191203,0.0413 0.245983,0.0984 0.405739,0.34487 0.479558,0.73845 0.0984,0.36903 0.135194,0.77469 0.110588,1.21749 0,0.44283 -0.0368,0.87318 -0.110588,1.2914 -0.04921,0.3936 -0.09807,0.67686 -0.147278,0.84905 -0.270589,1.25463 -0.688893,2.47219 -1.254704,3.653 -0.565785,1.18081 -1.27943,2.26332 -2.140437,3.24736 -0.516599,-0.56581 -0.873424,-1.19324 -1.070221,-1.88206 -0.172218,-0.71339 -0.23367,-1.42706 -0.184484,-2.14045 0.04921,-0.73798 0.196885,-1.46373 0.442868,-2.17713 0.246009,-0.71342 0.541324,-1.36503 0.885732,-1.95542 0.0984,-0.14762 0.258154,-0.39355 0.479558,-0.73795 0.221403,-0.3444 0.479925,-0.68911 0.775147,-1.03352 0.295195,-0.34438 0.590539,-0.62713 0.885735,-0.84853 0.239871,-0.1845 0.458991,-0.27226 0.657323,-0.26303 z m -5.233274,3.76877 c -0.172217,0.39359 -0.31986,0.78722 -0.442864,1.18081 -0.123005,0.36901 -0.19657,0.76208 -0.221176,1.18028 -0.122978,0.66421 -0.147688,1.32842 -0.0739,1.99263 0.07382,0.6396 0.282945,1.27968 0.627353,1.91926 0.418198,0.68884 0.959461,1.22955 1.623674,1.62317 0.02458,0 0.04929,0.0126 0.0739,0.0372 h 0.147277 c -0.02461,0.0492 -0.06137,0.086 -0.110588,0.11059 l -0.07389,0.0739 c -0.565785,0.54121 -1.205352,1.00838 -1.918748,1.40197 -0.713396,0.39363 -1.365044,0.59069 -1.955435,0.59069 -0.590417,0 -1.033407,-0.25855 -1.328602,-0.77515 -0.295222,-0.5166 -0.307303,-1.41417 -0.03669,-2.69338 0.270589,-0.8364 0.602729,-1.67301 0.996323,-2.50942 0.467413,-0.861 0.971365,-1.69762 1.512567,-2.50941 l 0.590664,-0.81182 c 0.196821,-0.2952 0.393348,-0.56531 0.590142,-0.81132 z m 29.507762,12.43489 c -0.295201,0.56578 -0.688819,1.27944 -1.180809,2.14045 -0.467407,0.86101 -0.996593,1.77117 -1.586981,2.73058 -0.59042,0.95941 -1.217877,1.91897 -1.882055,2.87838 -0.639602,0.95937 -1.291257,1.83276 -1.955438,2.61998 -0.66421,0.81179 -1.316342,1.48812 -1.955953,2.02933 -0.639599,0.5412 -1.229752,0.86071 -1.770952,0.95911 -0.467407,0.0492 -0.836303,-0.0123 -1.106908,-0.18447 -0.295201,-0.12303 -0.492263,-0.35634 -0.590661,-0.70075 -0.0492,-0.19679 -0.06129,-0.41857 -0.03669,-0.66455 0,-0.24601 0.04889,-0.54083 0.147278,-0.88522 0.29519,-1.00861 0.897937,-2.07904 1.808157,-3.21066 0.91019,-1.10702 1.955951,-2.16485 3.13676,-3.17344 1.180809,-1.00862 2.398376,-1.91876 3.653006,-2.73058 1.254602,-0.81179 2.361835,-1.41457 3.321246,-1.80816 z"
       style="font-style:normal;font-variant:normal;font-weight:normal;font-stretch:normal;font-size:36.9002px;line-height:1.25;font-family:Archemy;-inkscape-font-specification:Archemy;stroke-width:0.922507"
       id="path1494" />
  </g>
</svg>
